<svg width="445" height="470" viewBox="0 0 445 470" fill="none" xmlns="http://www.w3.org/2000/svg">
<path opacity="0.02439" d="M292.614 197.163L441.925 282.729C444.15 284.066 445.04 286.963 443.705 289.414C443.26 290.082 442.592 290.751 441.925 291.196L209.391 425.562C203.383 428.904 196.04 428.904 190.255 425.562L40.7209 340.219C38.4957 338.882 37.6057 335.985 38.9408 333.534C39.3858 332.865 40.0534 332.197 40.7209 331.751L273.255 197.386C279.263 193.82 286.606 193.82 292.614 197.163Z" fill="#F5F4F6"/>
<path opacity="0.04878" d="M292.391 197.385L441.257 282.729C443.483 284.066 444.373 286.963 443.038 289.414C442.592 290.082 441.925 290.751 441.257 291.196L209.614 425.116C206.692 426.76 203.397 427.623 200.045 427.623C196.694 427.623 193.399 426.76 190.477 425.116L41.6111 339.773C39.3859 338.436 38.4958 335.539 39.8309 333.088C40.276 332.42 40.9435 331.751 41.6111 331.305L273.477 197.163C279.263 194.043 286.606 194.043 292.391 197.385Z" fill="#EEECEF"/>
<path opacity="0.073171" d="M292.392 197.608L440.813 282.506C443.038 283.843 443.928 286.74 442.593 288.968C442.148 289.636 441.48 290.305 440.813 290.751L209.614 424.448C206.692 426.091 203.397 426.955 200.046 426.955C196.694 426.955 193.399 426.091 190.477 424.448L42.0564 339.327C39.8312 337.99 38.9411 335.093 40.2762 332.865C40.7213 332.197 41.3888 331.528 42.0564 331.083L273.255 197.385C279.04 194.043 286.384 194.266 292.392 197.608Z" fill="#E7E6EA"/>
<path opacity="0.097561" d="M292.169 197.608L440.145 282.506C442.37 283.843 443.26 286.74 441.925 288.968C441.48 289.637 440.812 290.305 440.145 290.751L209.837 424.002C204.051 427.345 196.708 427.345 190.7 424.002L42.7239 339.104C40.4987 337.767 39.6086 334.871 40.9437 332.642C41.3887 331.974 42.0563 331.305 42.7239 330.86L273.032 197.608C279.04 194.266 286.161 194.266 292.169 197.608Z" fill="#E2DFE5"/>
<path opacity="0.122" d="M291.946 197.831L439.477 282.283C441.702 283.62 442.593 286.517 441.257 288.745C440.812 289.414 440.145 290.082 439.477 290.528L209.836 423.334C204.051 426.676 196.708 426.676 190.922 423.334L43.3913 338.882C41.1661 337.545 40.2761 334.648 41.6112 332.42C42.0562 331.751 42.7238 331.083 43.3913 330.637L273.255 197.831C278.818 194.489 286.161 194.489 291.946 197.831Z" fill="#DCD9E0"/>
<path opacity="0.1463" d="M291.724 198.054L438.81 282.283C441.035 283.62 441.925 286.517 440.59 288.745C440.145 289.414 439.478 290.082 438.81 290.528L209.837 422.888C204.051 426.23 196.708 426.23 190.922 422.888L43.8367 338.659C41.6115 337.322 40.7214 334.425 42.0565 332.197C42.5015 331.528 43.1691 330.86 43.8367 330.414L272.81 198.054C278.818 194.712 285.939 194.712 291.724 198.054Z" fill="#D6D3DB"/>
<path opacity="0.1707" d="M291.724 198.054L438.365 282.06C440.59 283.397 441.48 286.294 440.145 288.522C439.7 289.191 439.032 289.859 438.365 290.305L210.059 422.22C204.274 425.562 197.153 425.562 191.145 422.22L44.5041 338.436C42.2789 337.099 41.3889 334.202 42.724 331.974C43.169 331.306 43.8366 330.637 44.5041 330.191L272.81 198.277C278.595 194.712 285.939 194.712 291.724 198.054Z" fill="#D1CED7"/>
<path opacity="0.1951" d="M291.501 198.277L437.697 281.838C439.922 283.174 440.812 286.071 439.477 288.3C439.032 288.968 438.365 289.636 437.697 290.082L210.059 421.774C204.274 425.116 197.153 425.116 191.367 421.774L45.1716 337.99C42.9464 336.653 42.0563 333.757 43.3915 331.528C43.8365 330.86 44.5041 330.191 45.1716 329.746L272.81 198.054C278.595 194.934 285.716 194.934 291.501 198.277Z" fill="#CBC8D2"/>
<path opacity="0.2195" d="M291.279 198.277L437.029 281.615C439.255 282.952 440.145 285.848 438.81 288.077C438.365 288.745 437.697 289.414 437.029 289.859L210.059 421.105C204.273 424.448 197.153 424.448 191.367 421.105L45.6164 337.767C43.3912 336.431 42.5012 333.534 43.8363 331.305C44.2813 330.637 44.9489 329.968 45.6164 329.523L272.587 198.5C278.373 195.157 285.493 195.157 291.279 198.277Z" fill="#C6C3CE"/>
<path opacity="0.2439" d="M291.279 198.5L436.585 281.615C438.81 282.952 439.7 285.848 438.365 288.077C437.92 288.745 437.252 289.414 436.585 289.859L210.282 420.66C204.496 424.002 197.376 424.002 191.59 420.66L46.2844 337.545C44.0592 336.208 43.1691 333.311 44.5043 331.083C44.9493 330.414 45.6169 329.746 46.2844 329.3L272.365 198.5C278.373 195.157 285.494 195.157 291.279 198.5Z" fill="#C1BECA"/>
<path opacity="0.2683" d="M291.057 198.722L435.917 281.615C438.142 282.952 439.032 285.848 437.697 288.077C437.252 288.745 436.585 289.414 435.917 289.859L210.504 419.991C204.719 423.333 197.598 423.333 191.813 419.991L46.9519 337.099C44.7267 335.762 43.8366 332.865 45.1717 330.637C45.6168 329.968 46.2843 329.3 46.9519 328.854L272.365 198.5C278.15 195.38 285.271 195.38 291.057 198.722Z" fill="#BCB9C6"/>
<path opacity="0.2927" d="M290.834 198.723L435.25 281.392C437.475 282.729 438.365 285.403 437.03 287.854C436.585 288.522 435.917 289.191 435.25 289.637L210.504 419.546C204.719 422.888 197.598 422.888 192.035 419.546L47.6194 336.876C45.3942 335.539 44.5041 332.865 45.8392 330.414C46.2843 329.746 46.9518 329.077 47.6194 328.632L272.365 198.723C278.15 195.603 285.048 195.603 290.834 198.723Z" fill="#B8B4C2"/>
<path opacity="0.3171" d="M290.611 198.945L434.582 281.392C436.807 282.729 437.697 285.626 436.362 287.854C435.917 288.522 435.249 289.191 434.582 289.636L210.504 418.877C204.718 422.219 197.82 422.219 192.035 418.877L48.0642 336.43C45.839 335.093 44.9489 332.197 46.284 329.968C46.7291 329.3 47.3966 328.631 48.0642 328.186L272.142 198.722C277.928 195.603 285.048 195.603 290.611 198.945Z" fill="#B3AFBE"/>
<path opacity="0.3415" d="M290.611 199.168L434.137 281.169C436.362 282.506 437.252 285.18 435.917 287.631C435.472 288.3 434.804 288.968 434.137 289.414L210.726 418.209C204.941 421.551 198.043 421.551 192.257 418.209L48.7317 336.208C46.5065 334.871 45.6164 332.197 46.9515 329.746C47.3966 329.077 48.0641 328.409 48.7317 327.963L272.142 198.945C277.927 195.826 284.826 195.826 290.611 199.168Z" fill="#AEAABA"/>
<path opacity="0.3659" d="M290.389 199.168L433.469 281.169C435.694 282.506 436.584 285.18 435.249 287.408C434.804 288.077 434.137 288.745 433.469 289.191L210.949 417.986C205.163 421.328 198.265 421.328 192.48 417.986L49.3992 336.208C47.174 334.871 46.2839 332.197 47.619 329.969C48.064 329.3 48.7316 328.632 49.3992 328.186L272.142 199.391C277.705 196.049 284.826 196.049 290.389 199.168Z" fill="#AAA5B6"/>
<path opacity="0.3902" d="M290.166 199.391L432.802 280.946C435.027 282.283 435.694 284.957 434.582 287.185C434.137 287.854 433.469 288.522 432.802 288.968L210.726 417.317C205.163 420.66 198.043 420.66 192.48 417.317L49.8443 335.762C47.6191 334.425 46.9516 331.751 48.0642 329.523C48.5092 328.854 49.1768 328.186 49.8443 327.74L271.919 199.614C277.705 196.049 284.603 196.049 290.166 199.391Z" fill="#A5A0B2"/>
<path opacity="0.4146" d="M290.166 199.391L432.357 280.724C434.582 282.061 435.249 284.734 434.137 286.963C433.692 287.631 433.024 288.3 432.357 288.745L211.172 416.649C205.609 419.991 198.488 419.991 192.925 416.649L50.7345 335.317C48.5093 333.98 47.8417 331.306 48.9543 329.077C49.3994 328.409 50.0669 327.74 50.7345 327.295L271.92 199.391C277.483 196.272 284.381 196.272 290.166 199.391Z" fill="#A19CAF"/>
<path opacity="0.439" d="M289.943 199.614L431.689 280.723C433.914 282.06 434.582 284.734 433.469 286.963C433.024 287.631 432.356 288.3 431.689 288.745L210.949 416.203C205.386 419.546 198.488 419.546 192.702 416.203L51.1793 335.094C48.9541 333.757 48.2865 331.083 49.3991 328.854C49.8442 328.186 50.5117 327.517 51.1793 327.072L271.697 199.614C277.26 196.494 284.38 196.494 289.943 199.614Z" fill="#9D97AB"/>
<path opacity="0.4634" d="M289.721 199.837L430.799 280.723C433.024 282.06 433.692 284.734 432.579 286.962C432.134 287.631 431.689 288.299 430.799 288.745L210.949 415.757C205.386 418.877 198.488 418.877 192.702 415.757L51.6246 334.871C49.3994 333.534 48.7318 330.86 49.8444 328.631C50.2895 327.963 50.7345 327.294 51.6246 326.849L271.475 199.837C277.26 196.717 284.158 196.717 289.721 199.837Z" fill="#9893A8"/>
<path opacity="0.4878" d="M289.721 199.837L430.354 280.501C432.579 281.615 433.469 284.289 432.357 286.517C431.912 287.408 431.244 288.077 430.354 288.522L211.172 415.089C205.609 418.209 198.711 418.209 193.148 415.089L52.2922 334.648C50.067 333.534 49.1769 330.86 50.2895 328.631C50.7346 327.74 51.4021 327.072 52.2922 326.626L271.475 199.837C277.038 196.494 283.936 196.494 289.721 199.837Z" fill="#948FA4"/>
<path opacity="0.5122" d="M289.499 200.059L429.686 280.501C431.912 281.615 432.802 284.289 431.689 286.517C431.244 287.408 430.577 288.077 429.686 288.522L211.394 414.643C205.831 417.763 198.933 417.763 193.37 414.643L53.1824 334.202C50.9572 333.088 50.0671 330.414 51.1797 328.186C51.6247 327.295 52.2923 326.626 53.1824 326.18L271.475 199.837C277.038 196.94 283.936 196.94 289.499 200.059Z" fill="#908AA1"/>
<path opacity="0.5366" d="M289.276 200.282L429.019 280.278C431.244 281.392 432.134 284.066 430.799 286.294C430.354 287.185 429.686 287.854 429.019 288.077L211.394 413.975C205.831 417.094 198.933 417.094 193.37 413.975L53.6272 333.979C51.402 332.865 50.5119 330.191 51.847 327.963C52.2921 327.072 52.9596 326.403 53.6272 326.18L271.474 200.282C277.037 197.163 283.713 197.163 289.276 200.282Z" fill="#8C869D"/>
<path opacity="0.561" d="M289.276 200.282L428.574 280.055C430.799 281.169 431.467 283.843 430.354 286.071C429.909 286.963 429.241 287.408 428.574 287.854L211.617 413.306C206.054 416.426 199.378 416.426 193.815 413.306L54.295 333.534C52.0698 332.42 51.4023 329.746 52.5149 327.517C52.9599 326.626 53.6275 326.18 54.295 325.735L271.03 200.282C276.815 196.94 283.713 197.163 289.276 200.282Z" fill="#88829A"/>
<path opacity="0.5854" d="M289.054 200.505L427.906 280.055C430.132 281.169 430.799 283.843 429.687 286.071C429.241 286.74 428.574 287.408 427.906 287.854L211.617 412.861C206.054 415.98 199.378 415.98 193.815 412.861L54.9625 333.311C52.7373 332.197 52.0697 329.523 53.1823 327.295C53.6274 326.626 54.2949 325.958 54.9625 325.512L271.252 200.505C276.815 197.386 283.491 197.386 289.054 200.505Z" fill="#847F97"/>
<path opacity="0.6098" d="M288.831 200.505L427.238 279.832C429.464 280.946 430.131 283.62 429.019 285.848C428.574 286.517 427.906 287.185 427.238 287.631L211.616 412.192C206.053 415.312 199.378 415.312 193.815 412.192L55.4073 332.865C53.1821 331.751 52.5146 329.077 53.6272 326.849C54.0722 326.18 54.7398 325.512 55.4073 325.066L271.029 200.505C276.592 197.608 283.268 197.385 288.831 200.505Z" fill="#817B94"/>
<path opacity="0.6341" d="M288.609 200.728L426.571 279.609C428.797 280.723 429.464 283.62 428.352 285.626C427.906 286.294 427.461 286.962 426.571 287.408L211.839 411.524C206.276 414.643 199.601 414.643 194.038 411.524L56.0753 332.642C53.8501 331.528 53.1825 328.631 54.2951 326.626C54.7402 325.957 55.1852 325.289 56.0753 324.843L271.03 200.728C276.593 197.608 283.268 197.608 288.609 200.728Z" fill="#7D7791"/>
<path opacity="0.6585" d="M288.609 200.951L426.126 279.609C428.352 280.723 429.019 283.62 427.907 285.626C427.462 286.294 427.016 286.963 426.126 287.408L212.062 411.301C206.499 414.42 199.823 414.42 194.483 411.301L56.9654 332.642C54.7402 331.528 54.0727 328.631 55.1853 326.626C55.6303 325.957 56.0754 325.289 56.9654 324.843L271.03 201.174C276.37 197.831 283.046 197.831 288.609 200.951Z" fill="#79748E"/>
<path opacity="0.6829" d="M288.386 200.951L425.458 279.387C427.684 280.501 428.351 283.398 427.016 285.403C426.571 286.071 426.126 286.74 425.458 286.963L212.062 410.187C206.499 413.307 199.823 413.307 194.483 410.187L57.4102 331.751C55.185 330.637 54.5174 327.74 55.8525 325.735C56.2976 325.066 56.7426 324.398 57.4102 324.175L270.807 200.951C276.147 197.831 282.823 197.831 288.386 200.951Z" fill="#76708B"/>
<path opacity="0.7073" d="M288.163 201.174L424.791 279.386C427.016 280.723 427.684 283.397 426.348 285.403C425.903 286.071 425.458 286.74 424.791 286.963L212.061 409.964C206.721 413.084 200.045 413.084 194.482 409.964L57.855 331.751C55.6298 330.414 54.9622 327.74 56.2973 325.735C56.7424 325.066 57.1874 324.398 57.855 324.175L270.584 201.174C275.925 198.054 282.823 198.054 288.163 201.174Z" fill="#726D88"/>
<path opacity="0.7317" d="M288.163 201.396L424.346 279.386C426.571 280.723 427.238 283.397 425.903 285.403C425.458 286.071 425.013 286.517 424.346 286.962L212.284 409.518C206.943 412.638 200.268 412.638 194.705 409.518L58.5225 331.528C56.2973 330.191 55.6297 327.517 56.9648 325.512C57.4099 324.843 57.8549 324.398 58.5225 323.952L270.584 201.396C275.925 198.277 282.6 198.277 288.163 201.396Z" fill="#6F6986"/>
<path opacity="0.7561" d="M287.941 201.396L423.678 279.164C425.681 280.501 426.571 283.175 425.236 285.18C424.791 285.848 424.346 286.294 423.678 286.74L212.284 408.85C206.943 411.969 200.268 411.969 194.927 408.85L59.19 331.305C57.1874 329.968 56.2973 327.295 57.6324 325.289C58.0774 324.621 58.5225 324.175 59.19 323.729L270.584 201.619C275.925 198.5 282.6 198.5 287.941 201.396Z" fill="#6B6683"/>
<path opacity="0.7805" d="M287.719 201.619L423.011 279.164C425.014 280.501 425.681 283.174 424.569 285.18C424.124 285.848 423.679 286.294 423.011 286.74L212.507 408.404C207.166 411.524 200.491 411.524 195.15 408.404L59.858 330.86C57.8553 329.523 56.9652 326.849 58.3004 324.843C58.7454 324.175 59.1904 323.729 59.858 323.284L270.362 201.619C275.703 198.5 282.378 198.5 287.719 201.619Z" fill="#686380"/>
<path opacity="0.8049" d="M287.718 201.619L422.566 278.718C424.568 280.055 425.236 282.729 424.123 284.957C423.678 285.626 423.233 286.071 422.566 286.517L212.729 407.736C207.389 410.855 200.713 410.855 195.372 407.736L60.5253 330.637C58.5226 329.3 57.855 326.626 58.9676 324.398C59.4127 323.729 59.8577 323.284 60.5253 322.838L270.362 201.619C275.702 198.723 282.155 198.723 287.718 201.619Z" fill="#64607E"/>
<path opacity="0.8293" d="M287.496 201.842L421.898 278.941C423.901 280.278 424.569 282.952 423.234 285.18C422.788 285.848 422.343 286.294 421.898 286.517L212.729 407.513C207.389 410.632 200.713 410.632 195.373 407.513L60.9706 330.637C58.968 329.3 58.3004 326.626 59.6355 324.398C60.0806 323.729 60.5256 323.284 60.9706 323.061L270.14 202.065C275.48 198.723 282.156 198.723 287.496 201.842Z" fill="#615D7B"/>
<path opacity="0.8537" d="M287.274 202.065L421.231 278.718C423.234 280.055 423.901 282.729 422.566 284.957C422.121 285.626 421.676 286.071 421.231 286.294L212.729 406.844C207.389 409.964 200.936 409.964 195.595 406.844L61.8608 330.414C59.8581 329.077 59.1905 326.403 60.5257 324.175C60.9707 323.507 61.4157 323.061 61.8608 322.838L270.362 202.288C275.48 198.945 281.933 198.945 287.274 202.065Z" fill="#5D5A79"/>
<path opacity="0.878" d="M287.051 202.065L420.563 278.495C422.566 279.609 423.456 282.283 422.121 284.288C421.676 284.957 421.231 285.625 420.563 285.848L212.952 405.953C207.611 409.072 201.158 409.072 195.818 405.953L62.3058 329.523C60.3031 328.408 59.413 325.735 60.7481 323.729C61.1932 323.061 61.6382 322.392 62.3058 322.169L269.917 202.065C275.258 198.945 281.711 198.945 287.051 202.065Z" fill="#5A5776"/>
<path opacity="0.9024" d="M287.051 202.288L420.118 278.272C422.121 279.386 423.011 282.06 421.676 284.066C421.231 284.734 420.786 285.403 420.118 285.626L213.174 405.284C207.834 408.404 201.381 408.404 196.04 405.284L62.9732 329.077C60.9706 327.963 60.0805 325.289 61.4156 323.284C61.8606 322.615 62.3057 321.947 62.9732 321.724L269.917 202.065C275.035 199.168 281.711 199.168 287.051 202.288Z" fill="#565474"/>
<path opacity="0.9268" d="M286.828 202.511L419.45 278.272C421.453 279.386 422.343 282.06 421.008 284.066C420.563 284.734 420.118 285.403 419.45 285.626L213.174 404.839C207.834 407.958 201.381 407.958 196.04 404.839L63.4181 329.077C61.4154 327.963 60.5253 325.289 61.8604 323.284C62.3055 322.615 62.7505 321.947 63.4181 321.724L269.694 202.511C275.035 199.391 281.488 199.391 286.828 202.511Z" fill="#535172"/>
<path opacity="0.9512" d="M286.606 202.51L418.56 278.049C420.563 279.163 421.231 281.837 420.118 283.843C419.673 284.511 419.228 285.18 418.56 285.403L212.952 404.17C207.611 407.29 201.158 407.29 196.04 404.17L64.0858 328.631C62.0831 327.517 61.4156 324.843 62.5282 322.838C62.9732 322.169 63.4182 321.501 64.0858 321.278L269.694 202.51C275.035 199.614 281.488 199.614 286.606 202.51Z" fill="#4F4E6F"/>
<path opacity="0.9756" d="M286.606 202.733L418.115 278.05C420.118 279.164 420.786 281.838 419.673 283.843C419.228 284.512 418.783 284.957 418.115 285.403L213.397 403.725C208.056 406.844 201.826 406.844 196.485 403.725L64.9759 328.409C62.9733 327.295 62.3057 324.621 63.4183 322.615C63.8633 321.947 64.3084 321.501 64.9759 321.055L269.695 202.733C274.812 199.614 281.266 199.614 286.606 202.733Z" fill="#4C4B6D"/>
<path d="M286.384 202.734L417.448 277.827C419.451 278.941 420.118 281.615 419.006 283.62C418.561 284.289 418.116 284.734 417.448 285.18L213.175 403.279C208.057 406.176 201.603 406.176 196.263 403.279L65.1986 328.186C63.1959 327.072 62.5284 324.398 63.641 322.392C64.086 321.724 64.531 321.278 65.1986 320.833L269.472 202.734C274.813 199.837 281.043 199.837 286.384 202.734Z" fill="#49486B"/>
<path d="M46.0613 131.428L272.364 0.628172C274.59 -0.708799 277.26 0.182513 278.595 2.4108C279.04 3.07928 279.262 3.9706 279.262 4.63908V175.326C279.262 178.891 277.26 182.233 274.367 184.016L47.8415 314.816C45.6163 316.153 42.946 315.262 41.6109 313.034C41.1659 312.365 40.9434 311.474 40.9434 310.805V139.896C41.1659 136.331 42.946 133.211 46.0613 131.428Z" fill="url(#paint0_linear_583_3971)"/>
<path d="M48.9545 133.211L275.258 2.41064C277.483 1.07367 280.153 1.96499 281.488 4.19327C281.933 4.86176 282.156 5.75307 282.156 6.42156V177.331C282.156 180.896 280.153 184.239 277.26 186.021L50.9572 316.822C48.732 318.159 46.0618 317.267 44.7266 315.039C44.2816 314.37 44.0591 313.479 44.0591 312.811V141.901C44.0591 138.336 45.8392 134.994 48.9545 133.211Z" fill="#49486B"/>
<path d="M57.4102 144.129L270.362 20.2368V176.44L57.4102 300.332V144.129Z" fill="white"/>
<path d="M291.279 194.043L436.14 270.696C436.14 270.696 437.03 282.06 433.915 283.843L211.839 412.192C206.276 415.535 199.156 415.535 193.593 412.192L50.9574 330.637C45.1719 327.072 48.7322 317.49 48.7322 317.49L273.033 194.266C278.596 190.701 285.494 190.701 291.279 194.043Z" fill="url(#paint1_linear_583_3971)"/>
<path d="M291.279 185.353L433.914 266.908C436.139 268.245 436.807 270.919 435.694 273.147C435.249 273.816 434.582 274.484 433.914 274.93L211.839 403.279C206.276 406.621 199.156 406.621 193.593 403.279L50.9571 321.724C48.7319 320.387 48.0644 317.713 49.177 315.485C49.622 314.816 50.2896 314.148 50.9571 313.702L273.032 185.353C278.595 182.01 285.493 182.01 291.279 185.353Z" fill="#F7F7F7"/>
<path d="M303.963 290.973L341.569 312.588C342.236 312.811 342.459 313.702 342.236 314.148L341.569 314.816L283.046 348.686C281.488 349.577 279.708 349.577 278.15 348.686L240.544 326.849C239.877 326.626 239.654 325.735 239.877 325.289L240.544 324.621L299.067 290.751C300.625 290.082 302.405 290.082 303.963 290.973Z" fill="#E3E7F3"/>
<path d="M275.703 197.831L263.464 204.962C263.019 205.185 263.019 205.63 263.241 206.076L263.464 206.299L269.472 209.864C269.917 210.087 270.585 210.087 271.03 209.864L283.268 202.733C283.713 202.511 283.713 202.065 283.491 201.619L283.268 201.396L277.26 197.831C276.593 197.608 276.148 197.608 275.703 197.831Z" fill="#D4DAED"/>
<path d="M257.679 208.527L245.44 215.657C244.995 215.88 244.995 216.326 245.217 216.772L245.44 216.994L251.448 220.56C251.893 220.783 252.561 220.783 253.006 220.56L265.244 213.429C265.689 213.206 265.689 212.761 265.467 212.315L265.244 212.092L259.236 208.527C258.791 208.304 258.124 208.304 257.679 208.527Z" fill="#D4DAED"/>
<path d="M239.654 218.554L227.416 225.685C226.971 225.908 226.971 226.353 227.193 226.799L227.416 227.022L233.424 230.587C233.869 230.81 234.536 230.81 234.981 230.587L247.22 223.457C247.665 223.234 247.665 222.788 247.442 222.342L247.22 222.12L241.212 218.554C240.544 218.331 240.099 218.331 239.654 218.554Z" fill="#D4DAED"/>
<path d="M220.963 229.25L208.724 236.38C208.279 236.603 208.279 237.049 208.502 237.494L208.724 237.717L214.732 241.283C215.177 241.505 215.845 241.505 216.29 241.283L228.528 234.152C228.973 233.929 228.973 233.484 228.751 233.038L228.528 232.815L222.52 229.25C222.075 228.804 221.408 228.804 220.963 229.25Z" fill="#D4DAED"/>
<path d="M202.938 239.277L190.7 246.408C190.255 246.631 190.255 247.076 190.477 247.522L190.7 247.745L196.93 251.31C197.375 251.533 198.043 251.533 198.488 251.31L210.727 244.18C211.172 243.957 211.172 243.511 210.949 243.065L210.727 242.843L204.719 239.277C204.273 238.832 203.606 238.832 202.938 239.277Z" fill="#D4DAED"/>
<path d="M185.582 249.75L173.343 256.881C172.898 257.104 172.898 257.549 173.121 257.995L173.343 258.218L179.351 261.783C179.796 262.006 180.464 262.006 180.909 261.783L193.148 254.653C193.593 254.43 193.593 253.984 193.37 253.538L193.148 253.316L187.14 249.75C186.694 249.528 186.027 249.528 185.582 249.75Z" fill="#D4DAED"/>
<path d="M167.557 260L155.319 267.131C154.874 267.354 154.874 267.799 155.096 268.245L155.319 268.468L161.327 272.033C161.772 272.256 162.44 272.256 162.885 272.033L175.123 264.903C175.568 264.68 175.568 264.234 175.346 263.788L175.123 263.566L169.115 260C168.67 259.778 168.003 259.778 167.557 260Z" fill="#D4DAED"/>
<path d="M149.534 270.696L137.295 277.827C136.85 278.05 136.85 278.495 137.072 278.941L137.295 279.164L143.303 282.729C143.748 282.952 144.416 282.952 144.861 282.729L157.099 275.598C157.544 275.376 157.544 274.93 157.322 274.484L157.099 274.261L151.091 270.696C150.646 270.473 149.979 270.473 149.534 270.696Z" fill="#D4DAED"/>
<path d="M131.954 281.169L119.716 288.3C119.271 288.523 119.271 288.968 119.493 289.414L119.716 289.637L125.724 293.202C126.169 293.425 126.836 293.425 127.282 293.202L139.52 286.071C139.965 285.849 139.965 285.403 139.743 284.957L139.52 284.734L133.512 281.169C133.067 280.724 132.399 280.724 131.954 281.169Z" fill="#D4DAED"/>
<path d="M113.263 291.865L101.024 298.995C100.579 299.218 100.579 299.664 100.802 300.109L101.024 300.332L107.032 303.897C107.478 304.12 108.145 304.12 108.59 303.897L120.829 296.767C121.274 296.544 121.274 296.098 121.051 295.653L120.829 295.43L114.821 291.865C114.376 291.419 113.708 291.419 113.263 291.865Z" fill="#D4DAED"/>
<path d="M95.2386 301.892L83 309.022C82.555 309.245 82.555 309.691 82.7775 310.137L83 310.359L89.0081 313.925C89.4531 314.148 90.1207 314.148 90.5657 313.925L102.804 307.017C103.249 306.794 103.249 306.349 103.027 305.903L102.804 305.68L96.7963 302.115C96.3512 301.669 95.6837 301.669 95.2386 301.892Z" fill="#D4DAED"/>
<path d="M300.625 211.201L292.392 206.299C291.279 205.63 289.944 205.63 288.831 206.299L280.821 210.978C279.931 211.424 279.708 212.538 280.153 213.429L280.821 214.098L288.831 219C289.944 219.668 291.279 219.668 292.392 219L300.625 214.321C301.515 213.875 301.738 212.761 301.293 211.869C301.07 211.424 300.848 211.201 300.625 211.201Z" fill="#D4DAED"/>
<path d="M281.933 221.897L273.7 216.994C272.587 216.326 271.252 216.326 270.139 216.994L261.906 221.674C261.016 222.119 260.794 223.233 261.239 224.125L261.906 224.793L269.917 229.918C271.03 230.587 272.365 230.587 273.477 229.918L281.933 225.016C282.823 224.57 283.046 223.456 282.601 222.565C282.601 222.342 282.378 222.119 281.933 221.897Z" fill="#D4DAED"/>
<path d="M263.909 231.924L255.676 227.022C254.563 226.353 253.228 226.353 252.116 227.022L243.882 231.701C242.992 232.147 242.77 233.261 243.215 234.152L243.882 234.821L251.893 239.723C253.006 240.392 254.341 240.392 255.453 239.723L263.909 234.821C264.799 234.375 265.022 233.261 264.577 232.37C264.577 232.37 264.354 232.147 263.909 231.924Z" fill="#D4DAED"/>
<path d="M244.549 242.62L236.316 237.717C235.204 237.049 233.868 237.049 232.756 237.717L224.745 242.397C223.855 242.842 223.632 243.957 224.077 244.848L224.745 245.516L232.756 250.419C233.868 251.087 235.204 251.087 236.316 250.419L244.772 245.739C245.662 245.294 245.884 244.179 245.439 243.288C245.217 242.842 244.994 242.62 244.549 242.62Z" fill="#D4DAED"/>
<path d="M227.638 252.647L219.405 247.745C218.292 247.076 216.957 247.076 215.845 247.745L207.611 252.424C206.721 252.87 206.499 253.984 206.944 254.875L207.611 255.544L215.845 260.446C216.957 261.114 218.292 261.114 219.405 260.446L227.861 255.767C228.751 255.321 228.973 254.207 228.528 253.315C228.083 252.87 228.083 252.647 227.638 252.647Z" fill="#D4DAED"/>
<path d="M210.504 263.12L202.271 258.218C201.158 257.549 199.823 257.549 198.711 258.218L190.477 262.897C189.587 263.343 189.365 264.457 189.81 265.348L190.477 266.017L198.488 270.919C199.601 271.587 200.936 271.587 202.049 270.919L210.504 266.24C211.394 265.794 211.617 264.68 211.172 263.788L210.504 263.12Z" fill="#D4DAED"/>
<path d="M192.035 273.37L183.802 268.468C182.689 267.799 181.354 267.799 180.241 268.468L172.008 273.147C171.118 273.593 170.896 274.707 171.341 275.598L172.008 276.267L180.019 281.169C181.132 281.838 182.467 281.838 183.579 281.169L192.035 276.49C192.925 276.044 193.148 274.93 192.703 274.039L192.035 273.37Z" fill="#D4DAED"/>
<path d="M174.011 283.62L165.778 278.718C164.665 278.049 163.33 278.049 162.218 278.718L153.984 283.397C153.094 283.843 152.872 284.957 153.317 285.848L153.984 286.517L161.995 291.419C163.108 292.088 164.443 292.088 165.555 291.419L174.011 286.74C174.901 286.294 175.124 285.18 174.456 284.289C174.234 283.843 174.011 283.62 174.011 283.62Z" fill="#D4DAED"/>
<path d="M156.209 294.539L147.976 289.636C146.864 288.968 145.528 288.968 144.416 289.636L136.183 294.316C135.292 294.761 135.07 295.876 135.515 296.767L136.183 297.435L144.193 302.56C145.306 303.229 146.641 303.229 147.754 302.56L156.209 297.881C157.099 297.435 157.322 296.321 156.877 295.43C156.654 294.984 156.654 294.761 156.209 294.539Z" fill="#D4DAED"/>
<path d="M136.85 305.903L128.394 301.001C127.282 300.332 125.946 300.332 124.834 301.001L116.601 305.68C115.71 306.126 115.488 307.24 115.933 308.131L116.601 308.8L124.611 313.702C125.724 314.371 127.059 314.371 128.172 313.702L136.627 309.023C137.517 308.577 137.74 307.463 137.295 306.572C137.295 306.126 137.072 305.903 136.85 305.903Z" fill="#D4DAED"/>
<path d="M119.494 315.262L111.26 310.36C110.148 309.691 108.813 309.691 107.7 310.36L99.4667 315.039C98.5767 315.485 98.3541 316.599 98.7992 317.49L99.4667 318.159L107.477 323.061C108.59 323.729 109.925 323.729 111.038 323.061L119.494 318.381C120.384 317.936 120.606 316.822 120.161 315.93C120.161 315.707 119.939 315.485 119.494 315.262Z" fill="#D4DAED"/>
<path d="M319.094 221.228L310.638 216.326C309.525 215.658 308.19 215.658 307.077 216.326L298.844 221.005C297.954 221.451 297.732 222.565 298.177 223.457L298.844 224.125L306.855 229.027C307.967 229.696 309.303 229.696 310.415 229.027L318.871 224.125C319.761 223.679 319.984 222.565 319.539 221.674L319.094 221.228Z" fill="#D4DAED"/>
<path d="M300.625 231.924L292.169 227.022C291.056 226.353 289.721 226.353 288.609 227.022L280.375 231.701C279.485 232.147 279.263 233.261 279.708 234.152L280.375 234.821L288.386 239.723C289.499 240.392 290.834 240.392 291.946 239.723L300.402 234.821C301.292 234.375 301.515 233.261 301.07 232.37L300.625 231.924Z" fill="#D4DAED"/>
<path d="M282.378 242.174L273.922 237.272C272.809 236.603 271.474 236.603 270.362 237.272L262.128 241.951C261.238 242.397 261.016 243.511 261.461 244.402L262.128 245.071L270.362 249.973C271.474 250.642 272.809 250.642 273.922 249.973L282.155 245.294C283.045 244.848 283.268 243.734 282.823 242.843C282.823 242.62 282.6 242.397 282.378 242.174Z" fill="#D4DAED"/>
<path d="M263.242 252.647L255.008 247.745C253.896 247.076 252.561 247.076 251.448 247.745L243.215 252.424C242.325 252.87 242.102 253.984 242.547 254.875L243.215 255.544L251.226 260.446C252.338 261.114 253.673 261.114 254.786 260.446L263.242 255.544C264.132 255.098 264.354 253.984 263.909 253.093C263.464 253.093 263.464 252.87 263.242 252.647Z" fill="#D4DAED"/>
<path d="M246.107 262.674L237.651 257.772C236.539 257.104 235.204 257.104 234.091 257.772L225.858 262.452C224.968 262.897 224.745 264.011 225.19 264.903L225.858 265.571L233.869 270.473C234.981 271.142 236.316 271.142 237.429 270.473L245.885 265.794C246.775 265.348 246.997 264.234 246.552 263.343C246.552 262.897 246.33 262.674 246.107 262.674Z" fill="#D4DAED"/>
<path d="M228.75 273.37L220.517 268.468C219.405 267.799 218.069 267.799 216.957 268.468L208.724 273.147C207.834 273.593 207.611 274.707 208.056 275.598L208.724 276.267L216.957 281.169C218.069 281.838 219.405 281.838 220.517 281.169L228.75 276.49C229.64 276.044 229.863 274.93 229.418 274.039C229.418 273.816 229.195 273.593 228.75 273.37Z" fill="#D4DAED"/>
<path d="M210.504 283.397L202.271 278.495C201.158 277.827 199.823 277.827 198.71 278.495L190.477 283.175C189.587 283.62 189.364 284.734 189.809 285.626L190.477 286.294L198.488 291.419C199.6 292.088 200.935 292.088 202.048 291.419L210.504 286.74C211.394 286.294 211.616 285.18 211.171 284.289C210.949 283.843 210.949 283.62 210.504 283.397Z" fill="#D4DAED"/>
<path d="M192.48 293.648L184.247 288.746C183.134 288.077 181.799 288.077 180.686 288.746L172.453 293.425C171.563 293.871 171.34 294.985 171.786 295.876L172.453 296.544L180.464 301.447C181.576 302.115 182.912 302.115 184.024 301.447L192.257 296.767C193.147 296.322 193.37 295.208 192.925 294.316C193.147 294.093 192.925 293.871 192.48 293.648Z" fill="#D4DAED"/>
<path d="M174.9 304.566L166.667 299.664C165.554 298.995 164.219 298.995 163.107 299.664L154.873 304.343C153.983 304.789 153.761 305.903 154.206 306.794L154.873 307.463L162.884 312.365C163.997 313.033 165.332 313.033 166.445 312.365L174.9 307.686C175.79 307.24 176.013 306.126 175.568 305.234L174.9 304.566Z" fill="#D4DAED"/>
<path d="M155.541 315.93L147.308 311.028C146.195 310.36 144.86 310.36 143.747 311.028L135.514 315.708C134.624 316.153 134.402 317.267 134.847 318.159L135.514 318.827L143.525 323.729C144.637 324.398 145.973 324.398 147.085 323.729L155.318 319.05C156.208 318.604 156.431 317.49 155.986 316.822C156.208 316.376 155.763 316.153 155.541 315.93Z" fill="#D4DAED"/>
<path d="M137.962 325.512L129.729 320.61C128.616 319.941 127.281 319.941 126.169 320.61L117.935 325.289C117.045 325.735 116.823 326.849 117.268 327.74L117.935 328.409L125.946 333.311C127.059 333.979 128.394 333.979 129.507 333.311L137.962 328.632C138.852 328.186 139.075 327.072 138.63 326.18C138.407 325.735 138.185 325.512 137.962 325.512Z" fill="#D4DAED"/>
<path d="M337.785 231.255L329.33 226.353C328.217 225.685 326.882 225.685 325.769 226.353L317.536 231.033C316.646 231.478 316.423 232.592 316.869 233.484L317.536 234.152L325.547 239.054C326.659 239.723 327.995 239.723 329.107 239.054L337.563 234.152C338.453 233.707 338.676 232.592 338.23 231.701L337.785 231.255Z" fill="#D4DAED"/>
<path d="M319.094 242.174L310.861 237.272C309.748 236.603 308.413 236.603 307.301 237.272L299.067 241.951C298.177 242.397 297.955 243.511 298.4 244.402L299.067 245.071L307.078 249.973C308.191 250.642 309.526 250.642 310.638 249.973L319.094 245.294C319.984 244.848 320.207 243.734 319.539 242.843C319.539 242.397 319.317 242.397 319.094 242.174Z" fill="#D4DAED"/>
<path d="M301.07 252.201L292.836 247.299C291.724 246.63 290.389 246.63 289.276 247.299L281.043 251.978C280.153 252.424 279.93 253.538 280.375 254.429L281.043 255.098L289.054 260C290.166 260.669 291.501 260.669 292.614 260L301.07 255.321C301.96 254.875 302.182 253.761 301.737 252.87C301.292 252.647 301.07 252.424 301.07 252.201Z" fill="#D4DAED"/>
<path d="M281.711 262.674L273.478 257.772C272.365 257.103 271.03 257.103 269.917 257.772L261.684 262.451C260.794 262.897 260.571 264.011 261.016 264.902L261.684 265.571L269.695 270.473C270.807 271.142 272.142 271.142 273.255 270.473L281.711 265.794C282.601 265.348 282.823 264.234 282.378 263.343C282.156 262.897 282.156 262.897 281.711 262.674Z" fill="#D4DAED"/>
<path d="M264.799 272.702L256.565 267.799C255.453 267.131 254.118 267.131 253.005 267.799L244.772 272.479C243.882 272.925 243.659 274.039 244.104 274.93L244.772 275.598L252.783 280.501C253.895 281.169 255.23 281.169 256.343 280.501L264.576 275.821C265.466 275.376 265.689 274.261 265.244 273.37C265.244 273.147 265.021 272.925 264.799 272.702Z" fill="#D4DAED"/>
<path d="M247.442 283.397L239.209 278.495C238.096 277.827 236.761 277.827 235.649 278.495L227.415 283.397C226.525 283.843 226.303 284.957 226.748 285.848L227.415 286.517L235.426 291.419C236.539 292.088 237.874 292.088 238.987 291.419L247.442 286.517C248.332 286.071 248.555 284.957 248.11 284.066C247.887 283.62 247.665 283.397 247.442 283.397Z" fill="#D4DAED"/>
<path d="M229.196 293.425L220.962 288.522C219.85 287.854 218.515 287.854 217.402 288.522L209.169 293.425C208.279 293.87 208.056 294.984 208.501 295.876L209.169 296.544L217.18 301.446C218.292 302.115 219.627 302.115 220.74 301.446L229.196 296.544C229.863 295.876 230.086 294.984 229.641 294.093C229.418 293.87 229.418 293.647 229.196 293.425Z" fill="#D4DAED"/>
<path d="M210.949 303.675L202.716 298.773C201.603 298.104 200.268 298.104 199.156 298.773L190.922 303.452C190.032 303.898 189.81 305.012 190.255 305.903L190.922 306.572L198.933 311.474C200.046 312.142 201.381 312.142 202.493 311.474L210.727 306.794C211.617 306.349 211.839 305.235 211.394 304.343C211.394 304.12 211.394 303.898 210.949 303.675Z" fill="#D4DAED"/>
<path d="M193.37 314.593L185.137 309.691C184.024 309.023 182.689 309.023 181.576 309.691L173.343 314.37C172.453 314.816 172.231 315.93 172.676 316.822L173.343 317.49L181.576 322.615C182.689 323.284 184.024 323.284 185.137 322.615L193.593 317.936C194.483 317.49 194.705 316.376 194.26 315.485L193.37 314.593Z" fill="#D4DAED"/>
<path d="M174.011 325.958L165.777 321.055C164.665 320.387 163.33 320.387 162.217 321.055L153.984 325.735C153.094 326.18 152.871 327.295 153.316 328.186L153.984 328.854L161.995 333.757C163.107 334.425 164.442 334.425 165.555 333.757L174.011 329.077C174.901 328.631 175.123 327.517 174.678 326.626L174.011 325.958Z" fill="#D4DAED"/>
<path d="M156.654 335.539L148.421 330.637C147.308 329.969 145.973 329.969 144.861 330.637L136.627 335.317C135.737 335.762 135.515 336.876 135.96 337.768L136.627 338.436L144.638 343.338C145.751 344.007 147.086 344.007 148.198 343.338L156.654 338.659C157.544 338.213 157.767 337.099 157.322 336.208C157.099 335.762 156.877 335.762 156.654 335.539Z" fill="#D4DAED"/>
<path d="M356.255 241.506L348.022 236.603C346.909 235.935 345.574 235.935 344.462 236.603L336.228 241.283C335.338 241.728 335.116 242.843 335.561 243.734L336.228 244.402L344.239 249.305C345.352 249.973 346.687 249.973 347.8 249.305L356.255 244.625C357.145 244.18 357.368 243.065 356.923 242.174C356.7 241.728 356.478 241.506 356.255 241.506Z" fill="#D4DAED"/>
<path d="M337.563 252.201L329.33 247.299C328.218 246.63 326.882 246.63 325.77 247.299L317.537 251.978C316.646 252.424 316.424 253.538 316.869 254.429L317.537 255.098L325.547 260C326.66 260.669 327.995 260.669 329.108 260L337.563 255.321C338.453 254.875 338.676 253.761 338.231 252.87C338.231 252.647 338.008 252.424 337.563 252.201Z" fill="#D4DAED"/>
<path d="M319.539 262.451L311.306 257.549C310.193 256.881 308.858 256.881 307.745 257.549L299.512 262.229C298.622 262.674 298.4 263.788 298.845 264.68L299.512 265.348L307.523 270.25C308.635 270.919 309.971 270.919 311.083 270.25L319.316 265.571C320.207 265.125 320.429 264.011 319.984 263.343C320.207 262.897 319.761 262.674 319.539 262.451Z" fill="#D4DAED"/>
<path d="M300.18 272.924L291.946 268.022C290.834 267.354 289.499 267.354 288.386 268.022L280.153 272.701C279.263 273.147 279.04 274.261 279.485 275.153L280.153 275.821L288.164 280.723C289.276 281.392 290.611 281.392 291.724 280.723L299.957 276.044C300.847 275.598 301.07 274.484 300.625 273.593C300.625 273.147 300.402 272.924 300.18 272.924Z" fill="#D4DAED"/>
<path d="M281.711 284.066L273.477 279.163C272.365 278.495 271.03 278.495 269.917 279.163L227.638 303.675C226.748 304.12 226.526 305.234 226.971 306.126L227.638 306.794L235.649 311.696C236.761 312.365 238.097 312.365 239.209 311.696L281.711 287.185C282.601 286.74 282.823 285.625 282.378 284.734C282.156 284.289 281.933 284.066 281.711 284.066Z" fill="#D4DAED"/>
<path d="M229.641 313.925L221.408 309.023C220.295 308.354 218.96 308.354 217.847 309.023L209.614 313.702C208.724 314.148 208.502 315.262 208.947 316.153L209.614 316.822L217.625 321.724C218.738 322.392 220.073 322.392 221.185 321.724L229.641 316.822C230.531 316.376 230.754 315.262 230.086 314.37C230.086 314.148 229.864 314.148 229.641 313.925Z" fill="#D4DAED"/>
<path d="M211.839 324.843L203.606 319.941C202.493 319.273 201.158 319.273 200.046 319.941L191.812 324.62C190.922 325.066 190.7 326.18 191.145 327.072L191.812 327.74L199.823 332.642C200.936 333.311 202.271 333.311 203.383 332.642L211.839 327.963C212.729 327.517 212.729 326.403 212.284 325.512C212.284 325.066 212.062 324.843 211.839 324.843Z" fill="#D4DAED"/>
<path d="M192.703 336.208L184.469 331.306C183.357 330.637 182.022 330.637 180.909 331.306L172.676 335.985C171.786 336.431 171.563 337.545 172.008 338.436L172.676 339.105L180.686 344.007C181.799 344.675 183.134 344.675 184.247 344.007L192.48 339.327C193.37 338.882 193.593 337.768 193.148 336.876C193.148 336.431 192.925 336.431 192.703 336.208Z" fill="#D4DAED"/>
<path d="M175.123 345.566L166.89 340.664C165.778 339.996 164.442 339.996 163.33 340.664L155.097 345.344C154.207 345.789 153.984 346.903 154.429 347.795L155.097 348.463L163.107 353.365C164.22 354.034 165.555 354.034 166.668 353.365L175.123 348.686C176.014 348.24 176.236 347.126 175.791 346.235C175.791 346.012 175.568 345.789 175.123 345.566Z" fill="#D4DAED"/>
<path d="M118.158 123.406L66.311 153.266V166.412L118.158 136.553V123.406Z" fill="#E3E7F3"/>
<path d="M163.33 119.618L66.311 175.994V184.461L163.33 128.086V119.618Z" fill="#E3E7F3"/>
<path d="M163.33 135.217L66.311 191.592V199.837L163.33 143.684V135.217Z" fill="#E3E7F3"/>
<path d="M260.793 132.542L163.997 188.695V197.163L260.793 141.01V132.542Z" fill="#E3E7F3"/>
<path d="M260.793 116.499L163.997 172.652V181.119L260.793 124.966V116.499Z" fill="#E3E7F3"/>
<path d="M260.793 147.918L163.997 204.293V212.761L260.793 156.385V147.918Z" fill="#E3E7F3"/>
<g opacity="0.79">
<path opacity="0.02439" d="M399.869 395.48C400.981 395.034 401.649 393.698 400.981 392.583C400.759 392.138 400.314 391.692 399.869 391.469L360.705 368.964C358.48 367.849 355.81 367.849 353.584 368.964L314.421 391.469C313.308 391.915 312.641 393.252 313.308 394.366C313.531 394.812 313.976 395.257 314.421 395.48L353.584 417.986C355.81 419.1 358.48 419.1 360.705 417.986L399.869 395.48Z" fill="#F5F4F6"/>
<path opacity="0.04878" d="M399.424 395.48C400.536 395.034 400.981 393.697 400.536 392.583C400.314 392.138 399.869 391.692 399.424 391.469L360.705 369.186C358.48 368.072 355.81 368.072 353.585 369.186L314.866 391.469C313.754 391.915 313.309 393.252 313.754 394.366C313.976 394.811 314.421 395.257 314.866 395.48L353.585 417.763C355.81 418.877 358.48 418.877 360.705 417.763L399.424 395.48Z" fill="#EEECEF"/>
<path opacity="0.073171" d="M398.979 395.48C400.091 395.034 400.536 393.697 400.091 392.583C399.869 392.138 399.424 391.692 398.979 391.469L360.483 369.186C358.258 368.072 355.587 368.072 353.362 369.186L314.866 391.469C313.754 391.915 313.309 393.252 313.754 394.366C313.976 394.811 314.421 395.257 314.866 395.48L353.362 417.763C355.587 418.877 358.258 418.877 360.483 417.763L398.979 395.48Z" fill="#E7E6EA"/>
<path opacity="0.097561" d="M398.756 395.48C399.869 395.034 400.314 393.697 399.869 392.583C399.646 392.138 399.201 391.692 398.756 391.469L360.483 369.409C358.257 368.295 355.587 368.295 353.585 369.409L315.534 391.469C314.421 391.915 313.976 393.252 314.421 394.366C314.644 394.812 315.089 395.257 315.534 395.48L353.807 417.54C356.032 418.654 358.703 418.654 360.705 417.54L398.756 395.48Z" fill="#E2DFE5"/>
<path opacity="0.122" d="M398.311 395.48C399.424 395.035 399.869 393.698 399.202 392.583C398.979 392.138 398.534 391.692 398.311 391.692L360.483 369.855C358.258 368.741 355.81 368.741 353.585 369.855L315.756 391.692C314.644 392.138 314.199 393.475 314.866 394.589C315.089 395.034 315.534 395.48 315.756 395.48L353.807 417.317C356.033 418.431 358.48 418.431 360.706 417.317L398.311 395.48Z" fill="#DCD9E0"/>
<path opacity="0.1463" d="M398.089 395.48C399.201 395.035 399.646 393.92 399.424 392.806C399.201 392.138 398.756 391.692 398.089 391.469L360.483 369.855C358.258 368.741 355.81 368.741 353.585 369.855L316.201 391.469C315.089 391.915 314.644 393.029 314.866 394.143C315.089 394.812 315.534 395.257 316.201 395.48L353.585 417.095C355.81 418.209 358.258 418.209 360.483 417.095L398.089 395.48Z" fill="#D6D3DB"/>
<path opacity="0.1707" d="M397.643 395.48C398.756 395.034 399.201 393.92 398.979 392.806C398.756 392.138 398.311 391.692 397.643 391.469L360.483 370.078C358.48 368.963 355.81 368.963 353.807 370.078L316.646 391.469C315.534 391.915 315.088 393.029 315.311 394.143C315.534 394.812 315.979 395.257 316.646 395.48L353.584 416.872C355.587 417.986 358.257 417.986 360.26 416.872L397.643 395.48Z" fill="#D1CED7"/>
<path opacity="0.1951" d="M397.199 395.48C398.311 395.034 398.756 393.92 398.534 392.806C398.311 392.137 397.866 391.692 397.199 391.469L360.26 370.3C358.258 369.186 355.587 369.186 353.585 370.3L316.869 391.692C315.756 392.137 315.311 393.252 315.534 394.366C315.756 395.034 316.201 395.48 316.869 395.703L353.585 416.871C355.587 417.985 358.258 417.985 360.26 416.871L397.199 395.48Z" fill="#CBC8D2"/>
<path opacity="0.2195" d="M396.976 395.48C398.088 395.034 398.533 393.92 398.311 393.029C398.088 392.361 397.643 391.915 396.976 391.692L360.483 370.523C358.48 369.409 355.81 369.409 353.807 370.523L317.314 391.692C316.201 392.138 315.756 393.252 315.978 394.143C316.201 394.812 316.646 395.257 317.314 395.48L353.807 416.649C355.81 417.763 358.48 417.763 360.483 416.649L396.976 395.48Z" fill="#C6C3CE"/>
<path opacity="0.2439" d="M396.531 395.48C397.644 395.034 398.089 393.92 397.866 393.029C397.644 392.36 397.198 391.915 396.531 391.692L360.26 370.746C358.257 369.632 355.587 369.632 353.584 370.746L317.536 391.469C316.424 391.915 315.979 393.029 316.201 393.92C316.424 394.589 316.869 395.034 317.536 395.257L353.584 416.203C355.587 417.317 358.257 417.317 360.26 416.203L396.531 395.48Z" fill="#C1BECA"/>
<path opacity="0.2683" d="M396.086 395.48C397.199 395.034 397.644 393.92 397.199 392.806C396.976 392.36 396.531 391.915 396.086 391.692L360.26 370.969C358.258 369.855 355.81 369.855 353.807 370.969L317.981 391.692C316.869 392.138 316.424 393.252 316.869 394.366C317.091 394.812 317.536 395.257 317.981 395.48L353.807 415.98C355.81 417.094 358.258 417.094 360.26 415.98L396.086 395.48Z" fill="#BCB9C6"/>
<path opacity="0.2927" d="M395.863 395.257C396.976 394.812 397.421 393.698 396.976 392.806C396.753 392.138 396.308 391.692 395.863 391.692L360.483 371.192C358.48 370.078 356.032 370.078 354.03 371.192L318.649 391.692C317.536 392.138 317.091 393.252 317.536 394.143C317.759 394.812 318.204 395.257 318.649 395.257L353.807 415.98C355.81 417.094 358.257 417.094 360.26 415.98L395.863 395.257Z" fill="#B8B4C2"/>
<path opacity="0.3171" d="M395.418 395.257C396.531 394.812 396.976 393.698 396.531 392.806C396.308 392.138 395.863 391.915 395.418 391.692L360.26 371.415C358.257 370.301 355.81 370.301 353.807 371.415L318.649 391.692C317.536 392.138 317.091 393.252 317.536 394.143C317.759 394.812 318.204 395.035 318.649 395.257L353.807 415.535C355.81 416.649 358.257 416.649 360.26 415.535L395.418 395.257Z" fill="#B3AFBE"/>
<path opacity="0.3415" d="M394.973 395.257C396.086 394.811 396.531 393.92 396.086 392.806C395.863 392.138 395.418 391.692 394.973 391.692L360.26 371.637C358.257 370.523 355.81 370.523 353.807 371.637L319.094 391.692C317.981 392.138 317.536 393.029 317.981 394.143C318.204 394.811 318.649 395.257 319.094 395.257L353.807 415.312C355.81 416.426 358.257 416.426 360.26 415.312L394.973 395.257Z" fill="#AEAABA"/>
<path opacity="0.3659" d="M394.751 395.257C395.863 394.811 396.308 393.92 395.863 392.806C395.641 392.138 395.196 391.692 394.751 391.692L360.26 371.86C358.257 370.969 356.032 370.969 354.03 371.86L319.539 391.692C318.426 392.138 317.981 393.029 318.426 394.143C318.649 394.811 319.094 395.257 319.539 395.257L354.03 415.089C356.032 415.98 358.257 415.98 360.26 415.089L394.751 395.257Z" fill="#AAA5B6"/>
<path opacity="0.3902" d="M394.306 395.257C395.196 395.034 395.864 393.92 395.641 392.806C395.419 392.138 394.974 391.692 394.306 391.469L360.26 371.637C358.258 370.746 356.032 370.746 354.03 371.637L319.984 391.469C319.094 391.692 318.427 392.806 318.649 393.92C318.872 394.589 319.317 395.034 319.984 395.257L354.03 415.089C356.032 415.98 358.258 415.98 360.26 415.089L394.306 395.257Z" fill="#A5A0B2"/>
<path opacity="0.4146" d="M393.86 395.257C394.751 394.812 395.418 393.92 394.973 392.806C394.751 392.36 394.305 391.915 393.86 391.692L360.037 372.083C358.035 371.192 355.809 371.192 353.807 372.083L319.984 391.692C319.094 392.138 318.426 393.029 318.871 394.143C319.094 394.589 319.539 395.034 319.984 395.257L353.807 414.866C355.809 415.757 358.035 415.757 360.037 414.866L393.86 395.257Z" fill="#A19CAF"/>
<path opacity="0.439" d="M393.638 395.257C394.528 394.811 395.196 393.92 394.751 392.806C394.528 392.36 394.083 391.915 393.638 391.692L360.26 372.306C358.257 371.414 356.032 371.414 354.252 372.306L320.874 391.692C319.984 392.137 319.316 393.029 319.761 394.143C319.984 394.589 320.429 395.034 320.874 395.257L354.252 414.643C356.255 415.534 358.48 415.534 360.26 414.643L393.638 395.257Z" fill="#9D97AB"/>
<path opacity="0.4634" d="M393.193 395.257C394.083 395.035 394.751 393.92 394.306 392.806C394.083 392.361 393.638 391.915 393.193 391.692L360.037 372.529C358.035 371.638 355.81 371.638 354.029 372.529L320.874 391.692C319.984 391.915 319.316 393.029 319.761 394.143C319.984 394.589 320.429 395.035 320.874 395.257L354.029 414.421C356.032 415.312 358.257 415.312 360.037 414.421L393.193 395.257Z" fill="#9893A8"/>
<path opacity="0.4878" d="M392.971 395.257C393.861 395.034 394.528 393.92 394.083 393.029C393.861 392.583 393.416 392.137 392.971 391.915L360.26 372.974C358.48 372.083 356.255 372.083 354.252 372.974L321.542 391.915C320.652 392.137 319.984 393.252 320.429 394.143C320.652 394.589 321.097 395.034 321.542 395.257L354.252 414.197C356.032 415.089 358.258 415.089 360.26 414.197L392.971 395.257Z" fill="#948FA4"/>
<path opacity="0.5122" d="M392.526 395.257C393.416 395.034 394.083 393.92 393.638 393.029C393.416 392.583 392.971 392.138 392.526 391.915L360.038 373.197C358.258 372.306 356.032 372.306 354.03 373.197L321.542 391.915C320.652 392.138 319.984 393.252 320.429 394.143C320.652 394.589 321.097 395.034 321.542 395.257L354.03 413.975C355.81 414.866 358.035 414.866 360.038 413.975L392.526 395.257Z" fill="#908AA1"/>
<path opacity="0.5366" d="M392.081 395.257C392.971 395.034 393.416 393.92 393.193 393.029C392.971 392.583 392.526 392.138 392.081 391.915L360.038 373.42C358.258 372.529 356.032 372.529 354.252 373.42L322.209 391.915C321.319 392.138 320.874 393.252 321.097 394.143C321.319 394.589 321.764 395.034 322.209 395.257L354.252 413.752C356.032 414.643 358.258 414.643 360.038 413.752L392.081 395.257Z" fill="#8C869D"/>
<path opacity="0.561" d="M391.858 395.257C392.748 395.034 393.193 393.92 392.971 393.029C392.748 392.583 392.303 392.138 391.858 391.915L360.038 373.42C358.258 372.529 356.033 372.529 354.252 373.42L322.432 391.915C321.542 392.138 321.097 393.252 321.319 394.143C321.542 394.589 321.987 395.034 322.432 395.257L354.252 413.752C356.033 414.643 358.258 414.643 360.038 413.752L391.858 395.257Z" fill="#88829A"/>
<path opacity="0.5854" d="M391.413 395.034C392.303 394.812 392.748 393.697 392.526 392.806C392.303 392.36 391.858 391.915 391.413 391.692L359.815 373.42C358.035 372.529 355.81 372.529 354.03 373.42L322.432 391.692C321.542 391.915 321.097 393.029 321.319 393.92C321.542 394.366 321.987 394.812 322.432 395.034L353.807 413.306C355.588 414.198 357.813 414.198 359.593 413.306L391.413 395.034Z" fill="#847F97"/>
<path opacity="0.6098" d="M391.191 395.034C392.081 394.812 392.526 393.697 392.303 392.806C392.081 392.36 391.636 391.915 391.191 391.692L360.038 373.643C358.258 372.752 356.255 372.752 354.252 373.643L323.099 391.692C322.209 391.915 321.764 393.029 321.987 393.92C322.209 394.366 322.654 394.812 323.099 395.034L354.252 413.083C356.032 413.975 358.035 413.975 360.038 413.083L391.191 395.034Z" fill="#817B94"/>
<path opacity="0.6341" d="M390.746 395.034C391.636 394.812 392.081 393.697 391.858 392.806C391.636 392.361 391.191 391.915 390.746 391.692L360.038 373.866C358.258 372.974 356.255 372.974 354.475 373.866L323.767 391.692C322.877 391.915 322.432 393.029 322.654 393.92C322.877 394.366 323.322 394.812 323.767 395.034L354.475 412.861C356.255 413.752 358.258 413.752 360.038 412.861L390.746 395.034Z" fill="#7D7791"/>
<path opacity="0.6585" d="M390.3 395.034C391.191 394.811 391.636 393.697 391.413 392.806C391.191 392.36 390.746 391.915 390.3 391.692L359.815 374.088C358.035 373.197 356.032 373.197 354.252 374.088L323.767 391.692C322.877 391.915 322.432 393.029 322.654 393.92C322.877 394.366 323.322 394.811 323.767 395.034L354.252 412.638C356.032 413.529 358.035 413.529 359.815 412.638L390.3 395.034Z" fill="#79748E"/>
<path opacity="0.6829" d="M390.078 395.034C390.968 394.812 391.413 393.92 391.19 393.029C390.968 392.583 390.523 392.138 390.078 391.915L360.038 374.534C358.258 373.643 356.255 373.643 354.475 374.534L324.434 391.915C323.544 392.138 323.099 393.029 323.322 393.92C323.544 394.366 323.989 394.812 324.434 395.034L354.475 412.415C356.255 413.306 358.258 413.306 360.038 412.415L390.078 395.034Z" fill="#76708B"/>
<path opacity="0.7073" d="M389.633 395.035C390.523 394.812 390.968 393.698 390.523 392.806C390.3 392.361 390.078 391.915 389.633 391.915L359.815 374.757C358.035 373.866 356.032 373.866 354.475 374.757L324.657 391.915C323.767 392.138 323.322 393.252 323.767 394.143C323.989 394.589 324.212 395.035 324.657 395.035L354.475 412.192C356.255 413.084 358.258 413.084 359.815 412.192L389.633 395.035Z" fill="#726D88"/>
<path opacity="0.7317" d="M389.41 395.034C390.301 394.811 390.746 393.697 390.301 393.029C390.078 392.583 389.855 392.138 389.41 392.138L359.815 374.98C358.035 374.088 356.032 374.088 354.475 374.98L324.88 391.915C323.99 392.138 323.544 393.252 323.99 393.92C324.212 394.366 324.435 394.811 324.88 394.811L354.252 411.746C356.032 412.638 358.035 412.638 359.593 411.746L389.41 395.034Z" fill="#6F6986"/>
<path opacity="0.7561" d="M388.965 395.034C389.855 394.811 390.3 393.92 390.078 393.029C389.855 392.583 389.633 392.138 388.965 391.915L359.815 374.98C358.035 374.088 356.255 374.088 354.475 374.98L325.325 391.915C324.434 392.138 323.989 393.029 324.212 393.92C324.434 394.366 324.657 394.811 325.325 395.034L354.475 411.969C356.255 412.861 358.035 412.861 359.815 411.969L388.965 395.034Z" fill="#6B6683"/>
<path opacity="0.7805" d="M388.52 395.034C389.41 394.812 389.855 393.92 389.41 393.029C389.188 392.583 388.965 392.138 388.52 392.138L359.815 375.426C358.257 374.534 356.255 374.534 354.474 375.426L325.769 392.138C324.879 392.361 324.434 393.252 324.879 394.143C325.102 394.589 325.324 395.034 325.769 395.034L354.474 411.524C356.032 412.415 358.035 412.415 359.815 411.524L388.52 395.034Z" fill="#686380"/>
<path opacity="0.8049" d="M388.076 395.034C388.966 394.812 389.411 393.92 389.188 393.029C388.966 392.583 388.743 392.138 388.076 391.915L359.593 375.426C358.035 374.534 356.033 374.534 354.475 375.426L325.993 391.915C325.102 392.138 324.657 393.029 324.88 393.92C325.102 394.366 325.325 394.812 325.993 395.034L354.475 411.524C356.033 412.415 358.035 412.415 359.593 411.524L388.076 395.034Z" fill="#64607E"/>
<path opacity="0.8293" d="M387.852 395.034C388.743 394.812 389.188 393.92 388.743 393.029C388.52 392.583 388.298 392.138 387.852 392.138L359.815 375.871C358.257 374.98 356.255 374.98 354.697 375.871L326.659 392.138C325.769 392.36 325.324 393.252 325.769 394.143C325.992 394.589 326.214 395.034 326.659 395.034L354.697 411.301C356.255 412.192 358.257 412.192 359.815 411.301L387.852 395.034Z" fill="#615D7B"/>
<path opacity="0.8537" d="M387.407 395.034C388.298 394.812 388.743 393.92 388.297 393.029C388.075 392.583 387.852 392.138 387.407 392.138L359.592 376.094C358.035 375.203 356.032 375.203 354.474 376.094L326.659 392.138C325.769 392.36 325.324 393.252 325.769 394.143C325.992 394.589 326.214 395.034 326.659 395.034L354.474 411.078C356.032 411.969 358.035 411.969 359.592 411.078L387.407 395.034Z" fill="#5D5A79"/>
<path opacity="0.878" d="M387.185 395.034C388.075 394.811 388.298 393.92 388.075 393.029C387.853 392.583 387.63 392.36 387.185 392.138L359.815 376.317C358.257 375.425 356.477 375.425 354.697 376.317L327.105 392.138C326.215 392.36 325.992 393.252 326.215 394.143C326.437 394.589 326.66 394.811 327.105 395.034L354.475 410.855C356.032 411.746 357.812 411.746 359.593 410.855L387.185 395.034Z" fill="#5A5776"/>
<path opacity="0.9024" d="M386.74 395.034C387.63 394.812 387.853 393.92 387.63 393.029C387.408 392.583 387.185 392.36 386.74 392.138L359.593 376.54C358.035 375.648 356.255 375.648 354.697 376.54L327.55 392.138C326.66 392.36 326.437 393.252 326.66 394.143C326.882 394.589 327.105 394.812 327.55 395.034L354.697 410.632C356.255 411.524 358.035 411.524 359.593 410.632L386.74 395.034Z" fill="#565474"/>
<path opacity="0.9268" d="M386.295 395.034C387.185 394.811 387.408 393.92 387.185 393.252C386.963 392.806 386.74 392.36 386.295 392.36L359.593 376.762C358.035 376.094 356.255 376.094 354.697 376.762L327.995 392.36C327.105 392.583 326.882 393.474 327.105 394.143C327.327 394.589 327.55 395.034 327.995 395.034L354.697 410.632C356.255 411.301 358.035 411.301 359.593 410.632L386.295 395.034Z" fill="#535172"/>
<path opacity="0.9512" d="M386.073 395.034C386.74 394.812 387.185 393.92 386.963 393.252C386.74 392.806 386.518 392.583 386.073 392.36L359.593 376.985C358.035 376.317 356.255 376.317 354.697 376.985L328.217 392.36C327.55 392.583 327.105 393.475 327.327 394.143C327.55 394.589 327.772 394.812 328.217 395.034L354.697 410.41C356.255 411.078 358.035 411.078 359.593 410.41L386.073 395.034Z" fill="#4F4E6F"/>
<path opacity="0.9756" d="M385.627 395.034C386.295 394.812 386.74 393.92 386.518 393.252C386.295 392.806 386.073 392.36 385.627 392.36L359.593 377.208C358.035 376.54 356.255 376.54 354.92 377.208L328.662 392.36C327.995 392.583 327.55 393.475 327.772 394.143C327.995 394.589 328.217 395.034 328.662 395.034L354.92 410.187C356.477 410.855 358.258 410.855 359.593 410.187L385.627 395.034Z" fill="#4C4B6D"/>
<path d="M385.183 395.035C385.85 394.812 386.295 393.92 386.073 393.252C385.85 392.806 385.628 392.583 385.183 392.361L359.37 377.431C357.813 376.763 356.032 376.763 354.697 377.431L328.885 392.361C328.217 392.583 327.772 393.475 327.995 394.143C328.217 394.589 328.44 394.812 328.885 395.035L354.697 409.964C356.255 410.632 358.035 410.632 359.37 409.964L385.183 395.035Z" fill="#49486B"/>
</g>
<path d="M396.086 374.98L357.367 352.697L318.871 374.98L357.367 397.263L396.086 374.98Z" fill="#EBEEF6"/>
<path d="M396.086 374.98V391.692L357.368 413.975V397.263L396.086 374.98Z" fill="#E3E7F3"/>
<path d="M394.306 378.991V383.224L384.515 388.795V384.561L394.306 378.991Z" fill="white"/>
<path d="M357.367 413.975L318.871 391.692V374.98L357.367 397.263V413.975Z" fill="#DBE0F0"/>
<path d="M380.732 400.605V383.893L372.944 388.349V405.062L380.732 400.605Z" fill="#0073EC"/>
<path d="M380.732 383.893L342.014 361.61L334.003 366.067L372.944 388.35L380.732 383.893Z" fill="#0073EC"/>
<g opacity="0.79">
<path opacity="0.02439" d="M334.67 445.394C335.783 444.948 336.45 443.611 335.783 442.497C335.56 442.051 335.115 441.606 334.67 441.383L295.506 418.877C293.281 417.763 290.611 417.763 288.386 418.877L249.222 441.383C248.11 441.828 247.442 443.165 248.11 444.28C248.332 444.725 248.777 445.171 249.222 445.394L288.386 467.899C290.611 469.014 293.281 469.014 295.506 467.899L334.67 445.394Z" fill="#F5F4F6"/>
<path opacity="0.04878" d="M334.225 445.394C335.338 444.948 335.783 443.611 335.338 442.497C335.115 442.051 334.67 441.605 334.225 441.383L295.507 419.1C293.281 417.986 290.611 417.986 288.386 419.1L249.667 441.383C248.555 441.828 248.11 443.165 248.555 444.279C248.777 444.725 249.222 445.171 249.667 445.394L288.386 467.676C290.611 468.791 293.281 468.791 295.507 467.676L334.225 445.394Z" fill="#EEECEF"/>
<path opacity="0.073171" d="M333.78 445.394C334.893 444.948 335.338 443.611 334.893 442.497C334.67 442.051 334.225 441.605 333.78 441.383L295.284 419.1C293.059 417.986 290.389 417.986 288.163 419.1L249.667 441.383C248.555 441.828 248.11 443.165 248.555 444.279C248.777 444.725 249.222 445.171 249.667 445.394L288.163 467.676C290.389 468.791 293.059 468.791 295.284 467.676L333.78 445.394Z" fill="#E7E6EA"/>
<path opacity="0.097561" d="M333.557 445.393C334.67 444.948 335.115 443.611 334.67 442.497C334.447 442.051 334.002 441.605 333.557 441.382L295.506 419.322C293.281 418.208 290.611 418.208 288.608 419.322L250.557 441.382C249.444 441.828 248.999 443.165 249.444 444.279C249.667 444.725 250.112 445.171 250.557 445.393L288.608 467.453C290.833 468.568 293.503 468.568 295.506 467.453L333.557 445.393Z" fill="#E2DFE5"/>
<path opacity="0.122" d="M333.113 445.393C334.225 444.948 334.67 443.611 334.003 442.497C333.78 442.051 333.335 441.605 333.113 441.605L295.284 419.768C293.059 418.654 290.611 418.654 288.386 419.768L250.558 441.605C249.445 442.051 249 443.388 249.668 444.502C249.89 444.948 250.335 445.393 250.558 445.393L288.386 467.231C290.611 468.345 293.059 468.345 295.284 467.231L333.113 445.393Z" fill="#DCD9E0"/>
<path opacity="0.1463" d="M332.667 445.393C333.78 444.948 334.225 443.834 334.003 442.72C333.78 442.051 333.335 441.605 332.667 441.383L295.284 419.768C293.059 418.654 290.611 418.654 288.386 419.768L251.003 441.383C249.89 441.828 249.445 442.942 249.667 444.057C249.89 444.725 250.335 445.171 251.003 445.393L288.386 467.008C290.611 468.122 293.059 468.122 295.284 467.008L332.667 445.393Z" fill="#D6D3DB"/>
<path opacity="0.1707" d="M332.445 445.394C333.557 444.948 334.002 443.834 333.78 442.72C333.557 442.051 333.112 441.605 332.445 441.383L295.284 419.991C293.281 418.877 290.611 418.877 288.608 419.991L251.447 441.383C250.335 441.828 249.89 442.942 250.112 444.057C250.335 444.725 250.78 445.171 251.447 445.394L288.608 466.785C290.611 467.899 293.281 467.899 295.284 466.785L332.445 445.394Z" fill="#D1CED7"/>
<path opacity="0.1951" d="M331.999 445.171C333.112 444.725 333.557 443.611 333.335 442.497C333.112 441.828 332.667 441.383 331.999 441.16L295.284 419.768C293.281 418.654 290.611 418.654 288.608 419.768L251.892 441.16C250.78 441.605 250.335 442.72 250.557 443.834C250.78 444.502 251.225 444.948 251.892 445.171L288.608 466.562C290.611 467.676 293.281 467.676 295.284 466.562L331.999 445.171Z" fill="#CBC8D2"/>
<path opacity="0.2195" d="M331.777 445.171C332.89 444.725 333.335 443.611 333.112 442.719C332.89 442.051 332.445 441.605 331.777 441.382L295.284 420.214C293.281 419.1 290.611 419.1 288.608 420.214L252.115 441.382C251.002 441.828 250.557 442.942 250.78 443.834C251.002 444.502 251.447 444.948 252.115 445.171L288.608 466.339C290.611 467.453 293.281 467.453 295.284 466.339L331.777 445.171Z" fill="#C6C3CE"/>
<path opacity="0.2439" d="M331.332 445.171C332.444 444.725 332.889 443.611 332.667 442.72C332.444 442.051 331.999 441.606 331.332 441.383L295.284 420.437C293.281 419.323 290.611 419.323 288.608 420.437L252.56 441.383C251.447 441.828 251.002 442.943 251.225 443.834C251.447 444.502 251.892 444.948 252.56 445.171L288.608 466.117C290.611 467.231 293.281 467.231 295.284 466.117L331.332 445.171Z" fill="#C1BECA"/>
<path opacity="0.2683" d="M330.887 445.171C332 444.725 332.445 443.611 332 442.497C331.777 442.051 331.332 441.605 330.887 441.383L295.062 420.66C293.059 419.545 290.611 419.545 288.608 420.66L252.783 441.383C251.67 441.828 251.225 442.942 251.67 444.057C251.893 444.502 252.338 444.948 252.783 445.171L288.608 465.894C290.611 467.008 293.059 467.008 295.062 465.894L330.887 445.171Z" fill="#BCB9C6"/>
<path opacity="0.2927" d="M330.665 445.171C331.777 444.725 332.222 443.611 331.777 442.72C331.555 442.051 331.11 441.606 330.665 441.606L295.284 421.105C293.281 419.991 290.834 419.991 288.831 421.105L253.45 441.606C252.338 442.051 251.892 443.165 252.338 444.057C252.56 444.725 253.005 445.171 253.45 445.171L288.831 465.671C290.834 466.785 293.281 466.785 295.284 465.671L330.665 445.171Z" fill="#B8B4C2"/>
<path opacity="0.3171" d="M330.22 445.171C331.332 444.725 331.777 443.611 331.332 442.72C331.11 442.051 330.665 441.828 330.22 441.605L295.061 421.328C293.059 420.214 290.611 420.214 288.608 421.328L253.45 441.605C252.338 442.051 251.892 443.165 252.338 444.057C252.56 444.725 253.005 444.948 253.45 445.171L288.608 465.448C290.611 466.562 293.059 466.562 295.061 465.448L330.22 445.171Z" fill="#B3AFBE"/>
<path opacity="0.3415" d="M329.774 445.171C330.887 444.725 331.332 443.834 330.887 442.72C330.664 442.051 330.219 441.605 329.774 441.605L295.061 421.551C293.059 420.437 290.611 420.437 288.608 421.551L253.895 441.605C252.782 442.051 252.337 442.942 252.782 444.057C253.005 444.725 253.45 445.171 253.895 445.171L288.608 465.225C290.611 466.339 293.059 466.339 295.061 465.225L329.774 445.171Z" fill="#AEAABA"/>
<path opacity="0.3659" d="M329.552 445.171C330.665 444.725 331.11 443.834 330.665 442.72C330.442 442.051 329.997 441.605 329.552 441.605L295.061 421.774C293.059 420.882 290.834 420.882 288.831 421.774L254.34 441.605C253.228 442.051 252.783 442.942 253.228 444.057C253.45 444.725 253.895 445.171 254.34 445.171L288.831 465.002C290.834 465.894 293.059 465.894 295.061 465.002L329.552 445.171Z" fill="#AAA5B6"/>
<path opacity="0.3902" d="M329.107 445.171C329.997 444.948 330.665 443.834 330.442 442.72C330.22 442.051 329.775 441.606 329.107 441.383L294.839 421.551C292.836 420.66 290.611 420.66 288.608 421.551L254.563 441.383C253.673 441.606 253.005 442.72 253.228 443.834C253.45 444.502 253.895 444.948 254.563 445.171L288.608 465.003C290.611 465.894 292.836 465.894 294.839 465.003L329.107 445.171Z" fill="#A5A0B2"/>
<path opacity="0.4146" d="M328.662 445.171C329.552 444.725 330.219 443.834 329.774 442.719C329.552 442.274 329.107 441.828 328.662 441.605L294.839 421.996C292.836 421.105 290.611 421.105 288.608 421.996L254.785 441.605C253.895 442.051 253.227 442.942 253.672 444.056C253.895 444.502 254.34 444.948 254.785 445.171L288.608 464.779C290.611 465.671 292.836 465.671 294.839 464.779L328.662 445.171Z" fill="#A19CAF"/>
<path opacity="0.439" d="M328.439 445.171C329.329 444.725 329.997 443.834 329.552 442.72C329.329 442.274 328.884 441.828 328.439 441.606L295.061 422.22C293.059 421.328 290.833 421.328 289.053 422.22L255.675 441.606C254.785 442.051 254.118 442.943 254.563 444.057C254.785 444.502 255.23 444.948 255.675 445.171L289.053 464.557C291.056 465.448 293.281 465.448 295.061 464.557L328.439 445.171Z" fill="#9D97AB"/>
<path opacity="0.4634" d="M327.994 445.171C328.884 444.948 329.552 443.834 329.107 442.72C328.884 442.274 328.439 441.828 327.994 441.605L294.839 422.442C292.836 421.551 290.611 421.551 288.831 422.442L255.675 441.605C254.785 441.828 254.118 442.942 254.563 444.057C254.785 444.502 255.23 444.948 255.675 445.171L288.831 464.334C290.833 465.225 293.059 465.225 294.839 464.334L327.994 445.171Z" fill="#9893A8"/>
<path opacity="0.4878" d="M327.772 445.171C328.662 444.948 329.33 443.834 328.885 442.942C328.662 442.497 328.217 442.051 327.772 441.828L295.062 422.888C293.281 421.996 291.056 421.996 289.054 422.888L256.343 441.828C255.453 442.051 254.785 443.165 255.231 444.056C255.453 444.502 255.898 444.948 256.343 445.171L289.054 464.111C290.834 465.002 293.059 465.002 295.062 464.111L327.772 445.171Z" fill="#948FA4"/>
<path opacity="0.5122" d="M327.327 444.948C328.217 444.725 328.885 443.611 328.44 442.719C328.217 442.274 327.772 441.828 327.327 441.605L294.839 422.888C293.059 421.996 290.834 421.996 288.831 422.888L256.343 441.605C255.453 441.828 254.785 442.942 255.231 443.834C255.453 444.279 255.898 444.725 256.343 444.948L288.831 463.665C290.611 464.557 292.836 464.557 294.839 463.665L327.327 444.948Z" fill="#908AA1"/>
<path opacity="0.5366" d="M326.882 444.948C327.772 444.725 328.217 443.611 327.995 442.72C327.772 442.274 327.327 441.828 326.882 441.605L294.839 423.111C293.059 422.219 290.834 422.219 289.054 423.111L257.011 441.605C256.121 441.828 255.675 442.942 255.898 443.834C256.121 444.279 256.566 444.725 257.011 444.948L289.276 463.443C291.056 464.334 293.281 464.334 295.062 463.443L326.882 444.948Z" fill="#8C869D"/>
<path opacity="0.561" d="M326.66 444.948C327.55 444.725 327.995 443.611 327.772 442.72C327.55 442.274 327.105 441.828 326.66 441.605L294.839 423.111C293.059 422.219 290.834 422.219 289.054 423.111L257.233 441.605C256.343 441.828 255.898 442.942 256.121 443.834C256.343 444.279 256.788 444.725 257.233 444.948L289.054 463.443C290.834 464.334 293.059 464.334 294.839 463.443L326.66 444.948Z" fill="#88829A"/>
<path opacity="0.5854" d="M326.214 444.948C327.104 444.725 327.549 443.611 327.327 442.72C327.104 442.274 326.659 441.828 326.214 441.605L294.839 423.334C293.059 422.442 290.834 422.442 289.053 423.334L257.678 441.605C256.788 441.828 256.343 442.942 256.565 443.834C256.788 444.279 257.233 444.725 257.678 444.948L289.276 463.22C291.056 464.111 293.281 464.111 295.062 463.22L326.214 444.948Z" fill="#847F97"/>
<path opacity="0.6098" d="M325.769 444.948C326.659 444.725 327.104 443.611 326.882 442.719C326.659 442.274 326.214 441.828 325.769 441.605L294.616 423.556C292.836 422.665 290.834 422.665 288.831 423.556L257.678 441.605C256.788 441.828 256.343 442.942 256.565 443.834C256.788 444.279 257.233 444.725 257.678 444.948L288.831 462.997C290.611 463.888 292.614 463.888 294.616 462.997L325.769 444.948Z" fill="#817B94"/>
<path opacity="0.6341" d="M325.547 444.948C326.437 444.725 326.882 443.611 326.659 442.72C326.437 442.274 325.992 441.828 325.547 441.606L294.839 423.779C293.059 422.888 291.056 422.888 289.276 423.779L258.568 441.606C257.678 441.828 257.233 442.943 257.456 443.834C257.678 444.28 258.123 444.725 258.568 444.948L289.276 462.774C291.056 463.666 293.059 463.666 294.839 462.774L325.547 444.948Z" fill="#7D7791"/>
<path opacity="0.6585" d="M325.102 444.948C325.992 444.725 326.437 443.611 326.214 442.72C325.992 442.274 325.547 441.828 325.102 441.605L294.616 424.002C292.836 423.111 290.834 423.111 289.053 424.002L258.568 441.605C257.678 441.828 257.233 442.942 257.456 443.834C257.678 444.279 258.123 444.725 258.568 444.948L289.053 462.551C290.834 463.443 292.836 463.443 294.616 462.551L325.102 444.948Z" fill="#79748E"/>
<path opacity="0.6829" d="M324.656 444.948C325.547 444.725 325.992 443.611 325.547 442.72C325.324 442.274 325.102 441.828 324.656 441.828L294.616 424.448C292.836 423.556 290.833 423.556 289.053 424.448L259.013 441.828C258.123 442.051 257.678 442.943 257.9 443.834C258.123 444.28 258.568 444.725 259.013 444.948L289.053 462.329C290.833 463.22 292.836 463.22 294.616 462.329L324.656 444.948Z" fill="#76708B"/>
<path opacity="0.7073" d="M324.434 444.948C325.324 444.725 325.769 443.611 325.324 442.72C325.102 442.274 324.879 441.828 324.434 441.828L294.616 424.67C292.836 423.779 290.834 423.779 289.276 424.67L259.458 441.828C258.568 442.051 258.123 443.165 258.568 444.057C258.791 444.502 259.013 444.948 259.458 444.948L289.276 462.106C291.056 462.997 293.059 462.997 294.616 462.106L324.434 444.948Z" fill="#726D88"/>
<path opacity="0.7317" d="M323.989 444.948C324.879 444.725 325.324 443.611 325.102 442.942C324.879 442.497 324.657 442.051 323.989 441.828L294.616 424.893C292.836 424.002 290.833 424.002 289.276 424.893L259.903 441.828C259.013 442.051 258.568 443.165 258.791 443.834C259.013 444.279 259.236 444.725 259.903 444.948L289.498 461.883C291.279 462.774 293.281 462.774 294.839 461.883L323.989 444.948Z" fill="#6F6986"/>
<path opacity="0.7561" d="M323.767 444.948C324.657 444.725 325.102 443.834 324.879 442.942C324.657 442.497 324.434 442.051 323.767 441.828L294.616 424.893C292.836 424.002 291.056 424.002 289.276 424.893L260.126 441.828C259.236 442.051 258.791 442.942 259.013 443.834C259.236 444.279 259.458 444.725 260.126 444.948L289.276 461.883C291.056 462.774 292.836 462.774 294.616 461.883L323.767 444.948Z" fill="#6B6683"/>
<path opacity="0.7805" d="M323.322 444.948C324.212 444.725 324.657 443.834 324.212 442.942C323.989 442.497 323.767 442.051 323.322 442.051L294.616 425.339C293.059 424.448 291.056 424.448 289.276 425.339L260.348 442.051C259.458 442.274 259.013 443.165 259.458 444.057C259.681 444.502 259.903 444.948 260.348 444.948L289.276 461.437C290.834 462.328 292.836 462.328 294.616 461.437L323.322 444.948Z" fill="#686380"/>
<path opacity="0.8049" d="M322.877 444.725C323.767 444.502 324.212 443.611 323.99 442.719C323.767 442.274 323.545 441.828 322.877 441.605L294.394 425.116C292.837 424.225 290.834 424.225 289.276 425.116L260.794 441.605C259.904 441.828 259.459 442.719 259.681 443.611C259.904 444.056 260.126 444.502 260.794 444.725L289.276 461.214C290.834 462.106 292.837 462.106 294.394 461.214L322.877 444.725Z" fill="#64607E"/>
<path opacity="0.8293" d="M322.654 444.725C323.544 444.502 323.989 443.611 323.544 442.72C323.321 442.274 323.099 441.828 322.654 441.828L294.616 425.562C293.059 424.67 291.056 424.67 289.498 425.562L261.461 441.828C260.571 442.051 260.126 442.942 260.571 443.834C260.793 444.279 261.016 444.725 261.461 444.725L289.498 460.992C291.056 461.883 293.059 461.883 294.616 460.992L322.654 444.725Z" fill="#615D7B"/>
<path opacity="0.8537" d="M322.209 444.725C323.099 444.502 323.544 443.611 323.099 442.719C322.876 442.274 322.654 441.828 322.209 441.828L294.394 425.784C292.836 424.893 290.833 424.893 289.276 425.784L261.461 441.828C260.571 442.051 260.126 442.942 260.571 443.834C260.793 444.279 261.016 444.725 261.461 444.725L289.276 460.769C290.833 461.66 292.836 461.66 294.394 460.769L322.209 444.725Z" fill="#5D5A79"/>
<path opacity="0.878" d="M321.764 444.725C322.654 444.502 322.876 443.611 322.654 442.72C322.431 442.274 322.209 442.051 321.764 441.828L294.394 426.008C292.836 425.116 291.056 425.116 289.276 426.008L261.906 441.828C261.016 442.051 260.793 442.943 261.016 443.834C261.238 444.28 261.461 444.502 261.906 444.725L289.276 460.546C290.834 461.437 292.614 461.437 294.394 460.546L321.764 444.725Z" fill="#5A5776"/>
<path opacity="0.9024" d="M321.542 444.725C322.432 444.502 322.654 443.611 322.432 442.72C322.209 442.274 321.987 442.051 321.542 441.828L294.394 426.23C292.836 425.339 291.056 425.339 289.499 426.23L262.351 441.828C261.461 442.051 261.239 442.942 261.461 443.834C261.684 444.279 261.906 444.502 262.351 444.725L289.499 460.323C291.056 461.214 292.836 461.214 294.394 460.323L321.542 444.725Z" fill="#565474"/>
<path opacity="0.9268" d="M321.096 444.725C321.986 444.502 322.209 443.611 321.986 442.943C321.764 442.497 321.541 442.051 321.096 442.051L294.394 426.453C292.836 425.785 291.056 425.785 289.498 426.453L262.796 442.051C261.906 442.274 261.683 443.165 261.906 443.834C262.128 444.28 262.351 444.725 262.796 444.725L289.498 460.323C291.056 460.992 292.836 460.992 294.394 460.323L321.096 444.725Z" fill="#535172"/>
<path opacity="0.9512" d="M320.874 444.725C321.542 444.502 321.987 443.611 321.764 442.942C321.542 442.497 321.319 442.274 320.874 442.051L294.394 426.676C292.836 426.007 291.056 426.007 289.499 426.676L263.019 442.051C262.351 442.274 261.906 443.165 262.129 443.834C262.351 444.279 262.574 444.502 263.019 444.725L289.499 460.1C291.056 460.769 292.836 460.769 294.394 460.1L320.874 444.725Z" fill="#4F4E6F"/>
<path opacity="0.9756" d="M320.429 444.725C321.096 444.502 321.541 443.611 321.319 442.942C321.096 442.497 320.874 442.051 320.429 442.051L294.171 426.899C292.614 426.23 290.833 426.23 289.498 426.899L263.241 442.051C262.573 442.274 262.128 443.165 262.351 443.834C262.573 444.279 262.796 444.725 263.241 444.725L289.498 459.877C291.056 460.546 292.836 460.546 294.171 459.877L320.429 444.725Z" fill="#4C4B6D"/>
<path d="M319.984 444.725C320.651 444.502 321.096 443.611 320.874 442.943C320.651 442.497 320.429 442.274 319.984 442.051L294.172 427.122C292.614 426.453 290.834 426.453 289.499 427.122L263.686 442.051C263.019 442.274 262.574 443.165 262.796 443.834C263.019 444.28 263.241 444.502 263.686 444.725L289.499 459.655C291.056 460.323 292.836 460.323 294.172 459.655L319.984 444.725Z" fill="#49486B"/>
</g>
<path d="M328.217 401.496L292.392 380.996L256.566 401.496L292.392 422.219L328.217 401.496Z" fill="#EBEEF6"/>
<path d="M328.217 401.496V442.942L292.392 463.665V422.219L328.217 401.496Z" fill="#E3E7F3"/>
<path d="M292.392 463.665L256.566 442.942V401.496L292.392 422.219V463.665Z" fill="#DBE0F0"/>
<path d="M313.753 451.187V409.741L306.633 413.975V455.198L313.753 451.187Z" fill="#555373"/>
<path d="M313.754 409.741L278.15 389.241L270.807 393.252L306.633 413.975L313.754 409.741Z" fill="#65617E"/>
<path d="M313.531 393.029L278.15 413.975L271.029 409.741L306.187 388.795L313.531 393.029Z" fill="#65617E"/>
<path d="M278.15 413.975V455.198L271.029 451.187V409.741L278.15 413.975Z" fill="#49486B"/>
<path d="M273.477 400.828C276.337 399.068 279.72 398.359 283.045 398.822L289.498 399.491L294.839 402.165L280.153 410.187L273.477 407.067C271.697 406.176 271.252 403.947 272.142 402.165L273.477 400.828Z" fill="#49486B"/>
<path d="M292.169 393.475C293.504 390.355 295.729 387.904 298.622 386.122C299.512 385.453 300.847 385.453 301.737 385.899H301.96L302.182 386.122L307.745 389.018L295.062 402.388L289.721 399.714L292.169 393.475Z" fill="#49486B"/>
<path d="M295.062 402.387L307.523 395.034C308.635 394.365 309.303 393.251 309.303 391.914C309.303 389.909 307.745 388.349 305.742 388.349C305.075 388.349 304.407 388.572 303.962 388.795C301.07 390.577 298.844 393.029 297.509 396.148L295.062 402.387Z" fill="#FEEA74"/>
<path d="M295.062 402.387L307.523 395.034C308.635 394.365 309.303 393.251 309.303 391.914C309.303 389.909 307.745 388.349 305.742 388.349C305.075 388.349 304.407 388.572 303.962 388.795C301.07 390.577 298.844 393.029 297.509 396.148L295.062 402.387Z" fill="#65617E"/>
<path d="M307.3 394.589C308.858 393.697 309.303 391.915 308.413 390.355C307.968 389.464 306.855 388.795 305.743 388.795C305.297 388.795 304.63 389.018 304.185 389.241C301.515 390.801 299.289 393.475 297.954 396.371L295.952 401.051L307.3 394.589Z" fill="#373750"/>
<path d="M295.062 402.387L282.601 409.963C281.488 410.632 280.153 410.632 279.04 409.963C277.26 409.072 276.592 406.844 277.705 405.061C277.928 404.393 278.373 403.947 279.04 403.724C281.901 401.964 285.283 401.255 288.609 401.719L295.062 402.387Z" fill="#65617E"/>
<path d="M280.82 409.741C281.488 409.741 281.933 409.518 282.378 409.295L293.504 402.611L288.386 401.942C285.271 401.496 281.933 402.388 279.263 403.948C277.705 404.839 277.26 406.844 278.372 408.181C278.595 409.295 279.708 409.964 280.82 409.741Z" fill="#373750"/>
<path d="M176.681 89.7594C174.011 91.3192 172.453 94.216 172.23 97.3355V139.004C172.23 141.678 174.233 143.015 176.681 141.456L257.456 94.6616C260.126 92.879 261.684 90.205 261.684 87.0854L261.239 45.8622C261.239 43.1882 259.236 41.8513 256.788 43.4111L176.681 89.7594Z" fill="#F7F8FC"/>
<path d="M176.681 89.7594L257.01 43.4111C258.568 42.5198 260.126 42.7426 260.793 43.8567C259.903 43.6339 258.791 43.6339 257.901 44.3024L177.793 90.6507C175.123 92.2105 173.565 95.1073 173.343 98.2269V139.896C173.343 140.564 173.565 141.456 174.01 141.901C172.898 141.456 172.23 140.119 172.453 139.004V97.3355C172.453 94.2159 174.233 91.542 176.681 89.7594Z" fill="url(#paint2_linear_583_3971)"/>
<path d="M190.477 92.2106C182.021 97.7814 176.681 106.917 176.236 117.167C176.236 126.303 182.689 130.091 190.477 125.858C198.265 121.624 204.718 110.26 204.718 100.901C204.718 91.5422 198.265 87.5313 190.477 92.2106Z" fill="#0073EC"/>
<path d="M187.139 116.053C186.917 117.836 188.029 119.396 189.587 119.841C190.477 120.064 191.59 119.841 192.257 119.173C195.15 117.167 197.153 113.825 197.153 110.26L187.139 116.053Z" fill="white"/>
<path d="M196.93 100.233C196.04 100.901 195.373 101.792 195.373 102.906C195.373 103.798 196.04 104.243 196.93 103.798C197.82 103.129 198.488 102.238 198.488 101.124C198.488 100.01 197.82 99.5641 196.93 100.233Z" fill="#49486B"/>
<path d="M186.694 106.249C185.804 106.918 185.137 107.809 185.137 108.923C185.137 109.814 185.804 110.26 186.694 109.814C187.584 109.146 188.252 108.255 188.252 107.14C188.252 106.249 187.584 105.803 186.694 106.249Z" fill="#49486B"/>
<path d="M209.391 83.2973L209.614 87.0854L256.565 59.6775V55.8894L209.391 83.2973Z" fill="#E3E7F3"/>
<path d="M209.391 92.6564L209.614 96.4444L256.565 69.0365V65.0256L209.391 92.6564Z" fill="#E3E7F3"/>
<path d="M209.391 101.792L209.614 105.803L256.565 78.3952V74.3843L209.391 101.792Z" fill="#E3E7F3"/>
<path d="M231.421 98.4497V102.461L256.566 87.9767V83.9658L231.421 98.4497Z" fill="#E3E7F3"/>
<path d="M156.209 173.32V213.875C156.209 216.326 154.874 218.777 152.649 220.114L73.2092 266.686C71.4291 267.8 68.9813 267.131 67.8687 265.349C67.4237 264.68 67.2012 264.012 67.2012 263.343V222.12C67.2012 219.669 68.5363 217.218 70.539 216.104L149.979 170.201C151.759 169.087 154.207 169.532 155.542 171.538C155.987 171.761 156.209 172.429 156.209 173.32Z" fill="#49486B"/>
<path d="M70.5388 215.88L149.979 169.978C151.536 169.086 153.316 169.309 154.651 170.423C153.539 169.978 152.204 169.978 151.091 170.646L71.6514 216.549C69.4262 217.886 68.0911 220.114 68.0911 222.565V263.566C68.0911 264.68 68.5362 265.794 69.4262 266.462C67.8686 265.794 66.9785 264.457 66.9785 262.897V221.897C67.201 219.446 68.5362 216.995 70.5388 215.88Z" fill="url(#paint3_linear_583_3971)"/>
<path d="M112.15 201.842L75.8794 223.234V237.272L112.15 216.103V201.842Z" fill="#0073EC"/>
<path d="M150.201 198.5L75.8794 242.174V247.522L150.201 203.848V198.5Z" fill="#E3E7F3"/>
<path d="M123.499 225.239L75.8794 253.316V258.664L123.499 230.587V225.239Z" fill="#E3E7F3"/>
<path d="M391.636 75.9441H392.971V217.886H391.636V75.9441Z" fill="#49486B"/>
<path d="M391.635 171.537C379.842 164.852 370.273 170.423 370.273 184.016C371.164 199.168 379.174 212.983 391.635 221.228C403.429 228.136 412.997 222.565 412.997 208.75C412.107 193.597 404.319 180.005 391.635 171.537Z" fill="#5D629E"/>
<path d="M390.078 171.537C378.284 164.852 368.716 170.423 368.716 184.016C369.606 199.168 377.617 212.983 390.078 221.228C401.871 228.136 411.44 222.565 411.44 208.75C410.55 193.597 402.539 180.005 390.078 171.537Z" fill="#49486B"/>
<path d="M399.646 201.619C399.423 200.728 398.978 200.059 398.311 199.614L397.866 199.391C398.756 199.837 399.201 199.168 399.201 198.054C398.978 197.163 398.533 196.494 397.866 196.048L394.751 194.489L391.858 193.152C391.858 192.706 391.858 192.26 392.08 191.815V191.369C392.303 190.478 392.303 189.809 392.303 188.918V186.69C392.303 186.244 392.08 185.798 391.635 185.353C391.413 185.13 391.19 184.907 390.968 184.907C390.3 184.684 389.855 184.907 389.855 185.576C389.855 186.69 389.633 187.804 389.188 188.918L387.63 191.146L386.517 190.478V188.918C386.517 188.695 386.517 188.695 386.295 188.472L382.067 186.467L382.512 196.048V200.728L386.74 202.733H386.962V201.396L387.63 201.842H387.852L388.075 202.065C388.297 202.288 388.297 202.288 388.297 202.51L389.633 204.962C389.855 205.407 390.078 205.63 390.523 205.853L396.308 208.75C396.753 208.973 397.198 208.973 397.421 208.527C397.643 208.304 397.643 208.081 397.643 207.858C397.643 206.744 397.198 205.853 396.308 205.184L397.643 205.853C398.088 206.076 398.533 206.076 398.756 205.63C398.978 205.407 398.978 205.184 398.978 204.962C398.978 203.847 398.533 202.956 397.643 202.288L398.978 202.956C399.201 203.402 399.869 202.733 399.646 201.619Z" fill="white"/>
<path d="M391.635 73.0473C379.842 66.3624 370.273 71.9331 370.273 85.5257C371.164 100.678 379.174 114.493 391.635 122.738C403.429 129.646 412.997 124.075 412.997 110.26C412.107 95.1073 404.319 81.2919 391.635 73.0473Z" fill="#FEC111"/>
<path d="M390.078 73.0473C378.284 66.3624 368.716 71.9331 368.716 85.5257C369.606 100.678 377.617 114.493 390.078 122.738C401.871 129.646 411.44 124.075 411.44 110.26C410.55 95.1073 402.539 81.2919 390.078 73.0473Z" fill="#FDD900"/>
<path d="M391.636 109.146C390.968 109.146 390.301 108.923 389.855 108.7L386.295 106.695L387.408 104.912L390.968 106.917C391.636 107.363 392.526 107.14 392.971 106.472C393.193 106.249 393.193 106.026 393.193 105.58V102.906C393.193 102.461 392.971 102.015 392.526 101.792L388.075 99.1184C386.74 98.2271 385.85 96.8901 385.85 95.3303V92.2107C385.85 90.6509 387.185 89.314 388.743 89.314C389.188 89.314 389.855 89.5368 390.301 89.7596L394.751 92.4336L393.638 94.2162L389.188 91.5422C388.743 91.3194 388.298 91.3194 388.075 91.7651C388.075 91.9879 387.853 91.9879 387.853 92.2107V95.3303C387.853 96.2216 388.298 96.8901 388.965 97.3358L393.416 100.01C394.528 100.678 395.196 101.792 395.196 102.906V105.58C395.196 107.586 393.638 109.146 391.636 109.146Z" fill="white"/>
<path d="M389.633 87.3083H391.858V90.428H389.633V87.3083Z" fill="white"/>
<path d="M389.633 107.809H391.858V110.928H389.633V107.809Z" fill="white"/>
<path d="M339.566 288.745V293.647C339.566 294.984 338.898 296.099 337.786 296.544L337.118 296.99C334.225 298.773 330.665 298.773 327.55 297.213L318.649 292.533C317.981 292.088 317.759 291.196 317.981 290.528L318.649 289.859C320.207 288.522 322.209 287.854 323.989 287.631C324.88 287.854 325.77 287.854 326.437 287.854L330.443 288.522L339.566 288.745Z" fill="#9AA7D5"/>
<path d="M318.871 291.419L327.772 296.099C330.665 297.658 334.448 297.658 337.34 295.876L338.008 295.43C339.12 294.762 339.788 293.647 339.788 292.533V293.647C339.788 294.984 339.12 296.099 338.008 296.544L337.34 296.99C334.448 298.773 330.887 298.772 327.772 297.213L318.871 292.533C318.204 292.088 317.981 291.419 318.204 290.528C318.204 290.973 318.426 291.196 318.871 291.419Z" fill="#373750"/>
<path d="M325.325 290.751L324.212 290.305L325.547 287.854H326.882L325.325 290.751Z" fill="white"/>
<path d="M327.328 291.419L326.438 290.75L327.773 288.076L328.885 288.299L327.328 291.419Z" fill="white"/>
<path d="M325.102 298.773V303.675C325.102 305.012 324.435 306.126 323.322 306.572L322.655 307.017C319.762 308.8 316.202 308.8 313.086 307.24L304.186 302.561C303.518 302.115 303.295 301.224 303.518 300.555L304.186 299.887C305.743 298.55 307.746 297.881 309.526 297.658C310.416 297.881 311.306 297.881 311.974 297.881L315.979 298.55L325.102 298.773Z" fill="#9AA7D5"/>
<path d="M304.408 301.446L313.309 306.126C316.201 307.685 319.984 307.685 322.877 305.903L323.544 305.457C324.657 304.789 325.325 303.675 325.325 302.56V303.675C325.325 305.012 324.657 306.126 323.544 306.571L322.877 307.017C319.984 308.8 316.424 308.8 313.309 307.24L304.408 302.56C303.74 302.115 303.518 301.446 303.74 300.555C303.963 301.001 304.185 301.223 304.408 301.446Z" fill="#373750"/>
<path d="M336.451 226.353C337.118 226.353 337.786 226.13 338.231 225.685L343.349 220.783C350.47 213.875 350.692 202.288 343.794 195.157C343.349 194.712 342.681 194.043 342.014 193.597L336.451 189.141C335.116 188.25 333.558 188.695 332.668 189.809C332 190.924 332 192.483 333.113 193.375L338.676 197.831C344.239 202.288 344.907 210.31 340.456 215.88C340.234 216.326 339.789 216.772 339.344 216.994L334.226 221.897C333.113 223.011 333.113 224.571 334.226 225.685C335.116 225.908 335.783 226.353 336.451 226.353Z" fill="#0073EC"/>
<path d="M335.116 294.093C337.564 294.093 339.566 291.865 339.344 289.413L337.786 259.332L339.789 226.576C339.789 223.902 337.564 221.896 335.116 221.896C332.446 221.896 327.328 224.125 327.328 226.576L330.22 289.191C330.443 291.865 332.668 294.093 335.116 294.093Z" fill="#49486B"/>
<path d="M320.429 304.12C323.099 304.12 325.102 301.892 325.102 299.441L324.434 267.354L327.995 236.826C327.995 234.152 322.877 232.147 320.207 232.147C317.536 232.147 315.534 234.375 315.534 236.826V299.441C315.756 301.892 317.759 304.12 320.429 304.12Z" fill="#49486B"/>
<path d="M338.453 221.228L340.456 236.381C340.456 238.386 339.343 239.946 337.785 241.06L325.324 247.968C322.877 249.305 319.984 248.413 318.649 246.185C318.204 245.517 317.981 244.625 317.981 243.734V212.984C317.981 211.201 313.976 212.315 315.756 211.424L333.112 201.397C336.45 199.391 338.453 217.217 338.453 221.228Z" fill="#49486B"/>
<path opacity="0.3" d="M334.67 221.674C333.78 222.788 333.78 224.57 334.893 225.462C335.783 226.353 337.341 226.353 338.453 225.462L341.346 222.565C341.346 221.897 341.346 221.451 341.123 220.782C340.901 219 340.901 216.994 340.901 215.212L339.566 216.549L334.67 221.674Z" fill="#231F20"/>
<path d="M340.011 196.94L339.121 211.647C339.344 214.766 339.344 217.886 339.566 221.005C340.011 225.908 340.456 231.033 340.456 235.935C340.234 237.049 337.118 239.5 333.113 241.728C332.668 241.951 332.445 232.37 332 232.592C331.555 232.815 331.333 242.62 330.888 242.843C325.77 245.071 319.539 246.631 315.311 244.625L315.756 226.799L314.866 215.657C314.421 208.081 312.864 197.831 320.429 193.152L321.319 192.483L329.33 188.027C331.11 186.913 333.558 186.913 335.338 188.027C338.453 189.809 340.456 193.375 340.011 196.94Z" fill="#0073EC"/>
<path d="M327.995 192.929C329.553 192.929 330.665 191.815 330.665 190.255V179.559C330.443 177.999 329.108 176.885 327.772 177.108C326.437 177.331 325.325 178.222 325.325 179.559V190.255C325.102 191.815 326.437 192.929 327.995 192.929Z" fill="#F2B0B3"/>
<path d="M325.102 189.809H330.22V171.76H316.869V181.119C317.091 183.124 319.984 189.809 325.102 189.809Z" fill="#F2B0B3"/>
<path d="M317.981 171.76V181.119C317.981 186.021 321.764 189.809 326.66 189.809H325.77C320.874 189.809 317.091 186.021 317.091 181.119V171.76H317.981Z" fill="#F5C3C3"/>
<path d="M313.976 168.195C314.643 166.858 316.201 165.967 317.536 166.635H317.759C318.426 167.081 319.094 167.304 319.761 166.858C320.429 166.189 321.319 165.967 322.209 166.189C322.654 166.189 323.322 166.635 323.767 166.635C324.879 166.635 325.547 165.744 326.659 166.189C327.327 166.412 327.995 166.412 328.662 166.412C329.33 166.189 329.997 166.412 330.665 166.635C331.777 167.081 331.777 167.972 332.445 168.863C333.112 169.755 333.78 169.086 334.67 169.755C335.338 170.423 335.338 171.315 335.115 171.983C334.893 172.429 334.67 172.652 334.893 173.097C335.115 173.543 335.338 173.543 335.56 173.766C336.228 174.434 335.783 175.548 335.115 176.44C334.893 176.662 334.893 176.885 334.893 176.885C334.893 177.108 335.115 177.331 335.338 177.554C336.005 178.668 336.005 180.005 335.115 180.673C334.67 181.119 334.225 181.342 334.003 181.787C334.003 182.01 334.003 182.456 334.225 182.679C334.448 183.793 334.003 185.13 332.89 185.576C331.555 186.244 332.89 188.472 330.887 188.472C329.33 188.695 327.995 186.69 327.772 185.576C327.772 185.798 326.882 185.13 326.659 185.13C326.437 184.684 326.214 184.239 326.214 183.793C325.992 182.902 325.769 182.233 325.769 181.342C325.769 180.005 325.769 178.891 325.547 177.554C324.879 177.554 324.212 177.554 323.544 177.331C322.209 176.662 322.654 175.771 322.209 174.88C321.986 174.434 321.319 174.211 321.096 173.766C320.874 173.097 320.874 172.429 320.874 171.983C319.539 172.429 317.981 172.429 316.646 171.983C315.533 171.537 314.198 170.869 314.198 169.532C313.753 169.086 313.753 168.641 313.976 168.195Z" fill="#373750"/>
<path opacity="0.2" d="M313.531 169.755C313.531 171.092 315.088 171.76 315.978 172.206C316.646 172.429 317.536 172.652 318.204 172.429C317.759 172.429 317.314 172.206 317.091 172.206C315.978 171.76 314.643 171.092 314.643 169.755C314.643 169.309 314.866 168.641 315.088 168.195C315.533 167.304 316.201 166.635 317.091 166.413C315.756 166.19 314.421 166.858 313.976 168.195C313.531 168.641 313.531 169.087 313.531 169.755Z" fill="#EF9EA3"/>
<path d="M323.99 181.342C325.096 181.342 325.992 180.444 325.992 179.336C325.992 178.229 325.096 177.331 323.99 177.331C322.883 177.331 321.987 178.229 321.987 179.336C321.987 180.444 322.883 181.342 323.99 181.342Z" fill="#F2B0B3"/>
<path d="M311.083 301.001L309.971 300.555L311.306 298.104H312.641L311.083 301.001Z" fill="white"/>
<path d="M313.086 301.446L311.973 301.001L313.531 298.104L314.643 298.327L313.086 301.446Z" fill="white"/>
<path d="M321.319 204.962L307.745 204.516C303.073 204.293 298.845 201.842 296.619 197.831L286.606 179.782C285.938 178.445 286.383 176.885 287.719 176.217C289.054 175.548 290.611 175.994 291.279 177.108L301.292 195.38C302.627 197.831 305.075 199.168 307.745 199.391L321.319 199.837C322.877 199.837 323.989 200.951 323.989 202.511C324.212 203.848 322.877 205.185 321.319 204.962Z" fill="#F2B0B3"/>
<path d="M321.319 205.408L307.746 204.962C303.073 204.739 298.622 202.065 296.397 198.054L288.387 183.57C287.941 182.011 288.832 180.228 290.389 179.782C291.502 179.559 292.614 179.782 293.282 180.674L301.293 195.157C302.628 197.386 304.853 198.946 307.523 198.946L321.097 199.391C322.655 199.168 324.212 200.505 324.435 202.065C324.657 203.625 323.322 205.185 321.765 205.408H321.319Z" fill="#0073EC"/>
<path d="M291.502 178.668C291.279 178.891 290.834 178.668 290.834 178.445L287.496 172.652C287.274 172.429 287.496 171.983 287.719 171.983C287.942 171.76 288.387 171.983 288.387 172.206L291.724 178C291.947 178.222 291.724 178.445 291.502 178.668Z" fill="#F2B0B3"/>
<path d="M105.697 407.29L101.246 408.181C99.2437 405.953 96.796 404.17 94.3483 402.61C79.2169 393.697 54.5171 393.697 39.6083 402.61C37.1606 404.17 34.7129 405.953 32.7102 408.181L28.2598 407.29V411.969C28.2598 417.762 32.0426 423.556 39.6083 427.79C54.7397 436.703 79.4394 436.703 94.3483 427.79C101.914 423.333 105.697 417.54 105.697 411.969V407.29Z" fill="#E1E4F0"/>
<path d="M39.6085 391.023C54.7399 382.11 79.4396 382.11 94.3485 391.023C109.257 399.937 109.48 413.975 94.3485 422.665C79.2171 431.355 54.5174 431.578 39.6085 422.665C24.6996 413.752 24.4771 399.714 39.6085 391.023Z" fill="white"/>
<path d="M43.3914 393.029C56.5201 385.453 77.6595 385.453 90.7882 393.029C103.917 400.605 103.694 412.861 90.7882 420.437C77.8821 428.013 56.5201 428.013 43.3914 420.437C30.2627 412.861 30.2627 400.605 43.3914 393.029Z" fill="#D3D8EA"/>
<path d="M47.1742 395.703C58.0777 389.463 75.8793 389.463 86.7828 395.703C97.6863 401.942 97.6863 411.969 86.7828 418.208C75.8793 424.447 58.0777 424.447 47.1742 418.208C36.2707 411.969 36.2707 401.719 47.1742 395.703Z" fill="white"/>
<path d="M50.7347 397.708C60.9706 392.583 72.9867 392.583 83.0001 397.708C91.9009 402.833 91.9009 410.855 83.0001 415.98C72.7642 421.105 60.7481 421.105 50.7347 415.98C41.8339 410.855 41.8339 402.61 50.7347 397.708Z" fill="#D3D8EA"/>
<path d="M54.2947 400.382C62.3054 396.817 71.2062 396.817 79.2169 400.382C86.1151 403.947 86.1151 409.741 79.2169 413.306C71.2062 416.872 62.3054 416.872 54.2947 413.306C47.3966 409.741 47.3966 403.947 54.2947 400.382Z" fill="white"/>
<path d="M59.1904 402.834C64.0859 400.605 69.6489 400.605 74.3218 402.834C78.5497 405.062 78.5497 408.627 74.3218 410.633C69.4264 412.861 63.8634 412.861 59.1904 410.633C54.9626 408.627 54.9626 405.062 59.1904 402.834Z" fill="#D3D8EA"/>
<path d="M66.7557 407.735C65.8657 407.735 64.9756 406.844 64.9756 405.953V325.066C64.9756 324.175 65.8657 323.283 66.9783 323.506C67.8683 323.506 68.5359 324.175 68.5359 325.066V405.953C68.5359 407.067 67.8683 407.735 66.7557 407.735C66.9783 407.735 66.9783 407.735 66.7557 407.735Z" fill="#5D6873"/>
<path d="M67.2012 332.42C86.7829 342.447 106.142 350.469 106.142 350.469C99.0216 365.621 67.2012 370.301 67.2012 370.301V332.42Z" fill="#0073EC"/>
<path d="M4.22788 55.6666L99.689 0.850813C101.469 -0.263329 103.694 -0.0405032 105.252 1.29647L110.147 5.53021L111.483 57.2264C111.483 60.1232 109.925 63.0199 107.255 64.5797L64.0858 89.0909L42.0563 101.792L10.4584 120.732H4.4504C2.00268 120.732 0 118.727 0 116.276V63.0199C0 59.9003 1.55764 57.2264 4.22788 55.6666Z" fill="url(#paint4_linear_583_3971)"/>
<path d="M111.482 8.87283V57.2266C111.482 60.1234 109.925 63.0201 107.254 64.5799L47.619 99.1183L43.1686 115.608C42.5011 117.613 40.2759 118.95 38.2732 118.282C38.0507 118.282 37.8281 118.059 37.6056 118.059L25.5895 112.042L12.2383 119.841C10.0131 121.178 7.12036 120.287 5.78524 118.059C5.3402 117.39 5.11768 116.499 5.11768 115.608V66.5854C5.11768 63.6886 6.67532 60.7919 9.34556 59.2321L104.139 4.41626C106.364 3.07929 109.257 3.9706 110.592 6.19889C111.26 7.0902 111.482 7.98151 111.482 8.87283Z" fill="#EDEFF8"/>
<path d="M86.5606 32.0469L89.0083 37.8404L96.1289 33.8295C96.3515 33.8295 96.574 33.8295 96.574 34.0523V34.2752L91.9011 43.1883L93.4587 50.7645C93.4587 50.9873 93.2362 51.2101 93.0137 51.4329L87.0056 50.7645L80.775 58.5635C80.5525 58.7863 80.5525 58.7863 80.33 58.5635V58.3406L81.2201 49.8731L75.4346 46.5307V46.0851L83.0003 41.6285L86.3381 32.0469H86.5606Z" fill="#0073EC"/>
<path d="M58.9679 48.0905L61.6382 53.884L68.7588 49.8731C68.9813 49.8731 69.2039 49.8731 69.2039 50.096V50.3188L64.5309 59.2319L65.8661 66.8081C65.8661 67.0309 65.6435 67.2537 65.421 67.4766L59.413 66.8081L53.4049 74.3843C53.1824 74.6071 53.1824 74.6071 52.9599 74.3843V74.1614L53.85 65.6939L48.0645 62.3515V61.9059L55.6301 57.4493L58.9679 47.8677C58.7454 47.8677 58.9679 47.8677 58.9679 48.0905C59.1905 48.0905 59.1905 47.8677 58.9679 48.0905Z" fill="#0073EC"/>
<path d="M31.598 64.1342L34.2683 69.9277L41.3889 65.9168C41.6114 65.9168 41.834 65.9168 41.834 66.1396V66.3624L37.161 75.2756L38.4962 82.8518C38.4962 83.0746 38.2736 83.2974 38.0511 83.5202L32.0431 82.8518L25.8125 90.6507C25.59 90.8736 25.59 90.8736 25.3675 90.6507V90.4279L26.2576 81.9604L20.2495 78.618V78.1724L27.8152 73.7158L31.153 64.1342C31.153 63.9113 31.3755 63.9113 31.598 64.1342C31.598 63.9113 31.598 63.9113 31.598 64.1342Z" fill="#0073EC"/>
<defs>
<linearGradient id="paint0_linear_583_3971" x1="279.218" y1="157.611" x2="41.0546" y2="157.611" gradientUnits="userSpaceOnUse">
<stop stop-color="#EBE9EB"/>
<stop offset="1" stop-color="#9AA7D5"/>
</linearGradient>
<linearGradient id="paint1_linear_583_3971" x1="436.236" y1="303.093" x2="47.5795" y2="303.093" gradientUnits="userSpaceOnUse">
<stop stop-color="white"/>
<stop offset="1" stop-color="#9AA7D5"/>
</linearGradient>
<linearGradient id="paint2_linear_583_3971" x1="260.86" y1="92.4311" x2="172.453" y2="92.4311" gradientUnits="userSpaceOnUse">
<stop stop-color="#D4DAED"/>
<stop offset="1" stop-color="#9AA7D5"/>
</linearGradient>
<linearGradient id="paint3_linear_583_3971" x1="154.852" y1="217.899" x2="67.201" y2="217.899" gradientUnits="userSpaceOnUse">
<stop stop-color="#49486B"/>
<stop offset="0.2" stop-color="#4E4F78"/>
<stop offset="0.71" stop-color="#595D94"/>
<stop offset="1" stop-color="#5D629E"/>
</linearGradient>
<linearGradient id="paint4_linear_583_3971" x1="111.438" y1="60.4106" x2="0" y2="60.4106" gradientUnits="userSpaceOnUse">
<stop stop-color="#D2D9EB"/>
<stop offset="0.55" stop-color="#AFBBDF"/>
<stop offset="1" stop-color="#99A6D4"/>
</linearGradient>
</defs>
</svg>
